<svg xmlns="http://www.w3.org/2000/svg" xmlns:xlink="http://www.w3.org/1999/xlink" width="1920" zoomAndPan="magnify" viewBox="0 0 1440 809.999993" height="1080" preserveAspectRatio="xMidYMid meet" version="1.0"><defs><g/></defs><rect x="-144" width="1728" fill="#ffffff" y="-80.999999" height="971.999992" fill-opacity="1"/><rect x="-144" width="1728" fill="#14274e" y="-80.999999" height="971.999992" fill-opacity="1"/><g fill="#f1f6f9" fill-opacity="1"><g transform="translate(15.594699, 108.512031)"><g><path d="M 44.078125 -67.875 C 55.578125 -67.875 64.597656 -65.722656 71.140625 -61.421875 C 77.679688 -57.128906 81.867188 -51.191406 83.703125 -43.609375 L 65.5 -43.609375 C 63.925781 -46.828125 61.398438 -49.335938 57.921875 -51.140625 C 54.441406 -52.941406 49.984375 -53.84375 44.546875 -53.84375 C 36.523438 -53.84375 30.648438 -52.007812 26.921875 -48.34375 C 23.191406 -44.675781 21.328125 -39.617188 21.328125 -33.171875 C 21.328125 -26.734375 23.191406 -21.679688 26.921875 -18.015625 C 30.648438 -14.347656 36.523438 -12.515625 44.546875 -12.515625 C 49.984375 -12.515625 54.441406 -13.414062 57.921875 -15.21875 C 61.398438 -17.019531 63.925781 -19.53125 65.5 -22.75 L 83.703125 -22.75 C 81.867188 -15.164062 77.679688 -9.222656 71.140625 -4.921875 C 64.597656 -0.628906 55.578125 1.515625 44.078125 1.515625 C 30.304688 1.515625 20.019531 -1.578125 13.21875 -7.765625 C 6.425781 -13.960938 3.03125 -22.429688 3.03125 -33.171875 C 3.03125 -43.921875 6.425781 -52.390625 13.21875 -58.578125 C 20.019531 -64.773438 30.304688 -67.875 44.078125 -67.875 Z M 44.078125 -67.875 "/></g></g></g><g fill="#f1f6f9" fill-opacity="1"><g transform="translate(102.235522, 108.512031)"><g><path d="M 43.421875 -67.875 C 57.003906 -67.875 67.113281 -64.773438 73.75 -58.578125 C 80.382812 -52.390625 83.703125 -43.921875 83.703125 -33.171875 C 83.703125 -22.429688 80.382812 -13.960938 73.75 -7.765625 C 67.113281 -1.578125 57.003906 1.515625 43.421875 1.515625 C 29.828125 1.515625 19.695312 -1.578125 13.03125 -7.765625 C 6.363281 -13.960938 3.03125 -22.429688 3.03125 -33.171875 C 3.03125 -43.921875 6.363281 -52.390625 13.03125 -58.578125 C 19.695312 -64.773438 29.828125 -67.875 43.421875 -67.875 Z M 43.421875 -53.84375 C 35.773438 -53.84375 30.179688 -51.992188 26.640625 -48.296875 C 23.097656 -44.597656 21.328125 -39.554688 21.328125 -33.171875 C 21.328125 -26.796875 23.097656 -21.757812 26.640625 -18.0625 C 30.179688 -14.363281 35.773438 -12.515625 43.421875 -12.515625 C 51.066406 -12.515625 56.65625 -14.363281 60.1875 -18.0625 C 63.726562 -21.757812 65.5 -26.796875 65.5 -33.171875 C 65.5 -39.554688 63.726562 -44.597656 60.1875 -48.296875 C 56.65625 -51.992188 51.066406 -53.84375 43.421875 -53.84375 Z M 43.421875 -53.84375 "/></g></g></g><g fill="#f1f6f9" fill-opacity="1"><g transform="translate(188.876345, 108.512031)"><g><path d="M 4.078125 -66.359375 L 20 -66.359375 L 59.625 -23.890625 L 59.625 -66.359375 L 77.921875 -66.359375 L 77.921875 0 L 61.90625 0 L 22.28125 -42.46875 L 22.28125 0 L 4.078125 0 Z M 4.078125 -66.359375 "/></g></g></g><g fill="#f1f6f9" fill-opacity="1"><g transform="translate(270.587911, 108.512031)"><g><path d="M 4.078125 -66.359375 L 69.015625 -66.359375 L 69.015625 -52.328125 L 22.28125 -52.328125 L 22.28125 -39.34375 L 60.09375 -39.34375 L 60.09375 -27.015625 L 22.28125 -27.015625 L 22.28125 0 L 4.078125 0 Z M 4.078125 -66.359375 "/></g></g></g><g fill="#f1f6f9" fill-opacity="1"><g transform="translate(341.113931, 108.512031)"><g><path d="M 3.984375 -66.359375 L 22.28125 -66.359375 L 22.28125 0 L 3.984375 0 Z M 3.984375 -66.359375 "/></g></g></g><g fill="#f1f6f9" fill-opacity="1"><g transform="translate(367.276795, 108.512031)"><g><path d="M 3.984375 -66.359375 L 52.609375 -66.359375 C 62.023438 -66.359375 69.164062 -63.484375 74.03125 -57.734375 C 78.894531 -51.984375 81.328125 -43.796875 81.328125 -33.171875 C 81.328125 -22.554688 78.753906 -14.375 73.609375 -8.625 C 68.460938 -2.875 61.460938 0 52.609375 0 L 3.984375 0 Z M 22.28125 -52.328125 L 22.28125 -14.03125 L 45.40625 -14.03125 C 51.09375 -14.03125 55.46875 -15.59375 58.53125 -18.71875 C 61.601562 -21.851562 63.140625 -26.671875 63.140625 -33.171875 C 63.140625 -39.742188 61.632812 -44.578125 58.625 -47.671875 C 55.625 -50.773438 51.21875 -52.328125 45.40625 -52.328125 Z M 22.28125 -52.328125 "/></g></g></g><g fill="#f1f6f9" fill-opacity="1"><g transform="translate(451.452984, 108.512031)"><g><path d="M 4.078125 -66.359375 L 69.015625 -66.359375 L 69.015625 -52.328125 L 22.28125 -52.328125 L 22.28125 -39.34375 L 60.09375 -39.34375 L 60.09375 -27.015625 L 22.28125 -27.015625 L 22.28125 -14.03125 L 69.015625 -14.03125 L 69.015625 0 L 4.078125 0 Z M 4.078125 -66.359375 "/></g></g></g><g fill="#f1f6f9" fill-opacity="1"><g transform="translate(522.737358, 108.512031)"><g><path d="M 4.078125 -66.359375 L 20 -66.359375 L 59.625 -23.890625 L 59.625 -66.359375 L 77.921875 -66.359375 L 77.921875 0 L 61.90625 0 L 22.28125 -42.46875 L 22.28125 0 L 4.078125 0 Z M 4.078125 -66.359375 "/></g></g></g><g fill="#f1f6f9" fill-opacity="1"><g transform="translate(604.448948, 108.512031)"><g><path d="M 44.078125 -67.875 C 55.578125 -67.875 64.597656 -65.722656 71.140625 -61.421875 C 77.679688 -57.128906 81.867188 -51.191406 83.703125 -43.609375 L 65.5 -43.609375 C 63.925781 -46.828125 61.398438 -49.335938 57.921875 -51.140625 C 54.441406 -52.941406 49.984375 -53.84375 44.546875 -53.84375 C 36.523438 -53.84375 30.648438 -52.007812 26.921875 -48.34375 C 23.191406 -44.675781 21.328125 -39.617188 21.328125 -33.171875 C 21.328125 -26.734375 23.191406 -21.679688 26.921875 -18.015625 C 30.648438 -14.347656 36.523438 -12.515625 44.546875 -12.515625 C 49.984375 -12.515625 54.441406 -13.414062 57.921875 -15.21875 C 61.398438 -17.019531 63.925781 -19.53125 65.5 -22.75 L 83.703125 -22.75 C 81.867188 -15.164062 77.679688 -9.222656 71.140625 -4.921875 C 64.597656 -0.628906 55.578125 1.515625 44.078125 1.515625 C 30.304688 1.515625 20.019531 -1.578125 13.21875 -7.765625 C 6.425781 -13.960938 3.03125 -22.429688 3.03125 -33.171875 C 3.03125 -43.921875 6.425781 -52.390625 13.21875 -58.578125 C 20.019531 -64.773438 30.304688 -67.875 44.078125 -67.875 Z M 44.078125 -67.875 "/></g></g></g><g fill="#f1f6f9" fill-opacity="1"><g transform="translate(691.089782, 108.512031)"><g><path d="M 4.078125 -66.359375 L 69.015625 -66.359375 L 69.015625 -52.328125 L 22.28125 -52.328125 L 22.28125 -39.34375 L 60.09375 -39.34375 L 60.09375 -27.015625 L 22.28125 -27.015625 L 22.28125 -14.03125 L 69.015625 -14.03125 L 69.015625 0 L 4.078125 0 Z M 4.078125 -66.359375 "/></g></g></g><g fill="#f1f6f9" fill-opacity="1"><g transform="translate(762.37411, 108.512031)"><g><path d="M 3.03125 -17.25 L 20.375 -17.25 L 20.375 -1.421875 C 20.375 4.078125 18.84375 8.34375 15.78125 11.375 C 12.71875 14.40625 8.34375 15.921875 2.65625 15.921875 L 2.65625 8.25 C 5.25 8.25 7.285156 7.503906 8.765625 6.015625 C 10.253906 4.535156 11.125 2.53125 11.375 0 L 3.03125 0 Z M 3.03125 -17.25 "/></g></g></g><g fill="#f1f6f9" fill-opacity="1"><g transform="translate(785.693232, 108.512031)"><g/></g></g><g fill="#f1f6f9" fill-opacity="1"><g transform="translate(812.804009, 108.512031)"><g><path d="M 44.078125 -67.875 C 55.578125 -67.875 64.597656 -65.722656 71.140625 -61.421875 C 77.679688 -57.128906 81.867188 -51.191406 83.703125 -43.609375 L 65.5 -43.609375 C 63.925781 -46.828125 61.398438 -49.335938 57.921875 -51.140625 C 54.441406 -52.941406 49.984375 -53.84375 44.546875 -53.84375 C 36.523438 -53.84375 30.648438 -52.007812 26.921875 -48.34375 C 23.191406 -44.675781 21.328125 -39.617188 21.328125 -33.171875 C 21.328125 -26.734375 23.191406 -21.679688 26.921875 -18.015625 C 30.648438 -14.347656 36.523438 -12.515625 44.546875 -12.515625 C 49.984375 -12.515625 54.441406 -13.414062 57.921875 -15.21875 C 61.398438 -17.019531 63.925781 -19.53125 65.5 -22.75 L 83.703125 -22.75 C 81.867188 -15.164062 77.679688 -9.222656 71.140625 -4.921875 C 64.597656 -0.628906 55.578125 1.515625 44.078125 1.515625 C 30.304688 1.515625 20.019531 -1.578125 13.21875 -7.765625 C 6.425781 -13.960938 3.03125 -22.429688 3.03125 -33.171875 C 3.03125 -43.921875 6.425781 -52.390625 13.21875 -58.578125 C 20.019531 -64.773438 30.304688 -67.875 44.078125 -67.875 Z M 44.078125 -67.875 "/></g></g></g><g fill="#f1f6f9" fill-opacity="1"><g transform="translate(899.444843, 108.512031)"><g><path d="M 3.984375 -66.359375 L 22.28125 -66.359375 L 22.28125 -29.015625 C 22.28125 -23.828125 23.734375 -19.78125 26.640625 -16.875 C 29.546875 -13.96875 34.347656 -12.515625 41.046875 -12.515625 C 47.804688 -12.515625 52.609375 -13.96875 55.453125 -16.875 C 58.296875 -19.78125 59.71875 -23.828125 59.71875 -29.015625 L 59.71875 -66.359375 L 77.921875 -66.359375 L 77.921875 -29.015625 C 77.921875 -19.523438 74.882812 -12.0625 68.8125 -6.625 C 62.75 -1.195312 53.492188 1.515625 41.046875 1.515625 C 28.660156 1.515625 19.382812 -1.195312 13.21875 -6.625 C 7.0625 -12.0625 3.984375 -19.523438 3.984375 -29.015625 Z M 3.984375 -66.359375 "/></g></g></g><g fill="#f1f6f9" fill-opacity="1"><g transform="translate(981.345992, 108.512031)"><g><path d="M 21.890625 -52.328125 L 21.890625 -36.96875 L 42.9375 -36.96875 C 45.53125 -36.96875 47.535156 -37.660156 48.953125 -39.046875 C 50.378906 -40.441406 51.09375 -42.375 51.09375 -44.84375 C 51.09375 -47.300781 50.378906 -49.160156 48.953125 -50.421875 C 47.535156 -51.691406 45.53125 -52.328125 42.9375 -52.328125 Z M 21.890625 -23.125 L 21.890625 0 L 3.703125 0 L 3.703125 -66.359375 L 48.71875 -66.359375 C 55.101562 -66.359375 60.128906 -64.773438 63.796875 -61.609375 C 67.460938 -58.453125 69.296875 -53.585938 69.296875 -47.015625 C 69.296875 -43.285156 68.691406 -40.109375 67.484375 -37.484375 C 66.285156 -34.867188 64.582031 -32.769531 62.375 -31.1875 C 64.582031 -29.863281 66.285156 -28.0625 67.484375 -25.78125 C 68.691406 -23.507812 69.296875 -21.015625 69.296875 -18.296875 L 69.296875 -4.265625 C 69.296875 -3.316406 69.5 -2.460938 69.90625 -1.703125 C 70.320312 -0.941406 70.972656 -0.375 71.859375 0 L 53.46875 0 C 52.707031 -0.1875 52.117188 -0.722656 51.703125 -1.609375 C 51.296875 -2.492188 51.09375 -3.378906 51.09375 -4.265625 L 51.09375 -17.15625 C 51.09375 -18.800781 50.507812 -20.207031 49.34375 -21.375 C 48.175781 -22.539062 46.769531 -23.125 45.125 -23.125 Z M 21.890625 -23.125 "/></g></g></g><g fill="#f1f6f9" fill-opacity="1"><g transform="translate(1055.284526, 108.512031)"><g><path d="M 27.78125 -66.359375 L 54.890625 -66.359375 L 81.71875 0 L 62.09375 0 L 56.78125 -13.078125 L 25.78125 -13.078125 L 20.46875 0 L 0.953125 0 Z M 51 -27.109375 L 41.234375 -51.1875 L 31.46875 -27.109375 Z M 51 -27.109375 "/></g></g></g><g fill="#f1f6f9" fill-opacity="1"><g transform="translate(1131.876899, 108.512031)"><g><path d="M 0.953125 -66.359375 L 66.453125 -66.359375 L 66.453125 -52.328125 L 42.9375 -52.328125 L 42.9375 0 L 24.640625 0 L 24.640625 -52.328125 L 0.953125 -52.328125 Z M 0.953125 -66.359375 "/></g></g></g><g fill="#f1f6f9" fill-opacity="1"><g transform="translate(1199.179966, 108.512031)"><g><path d="M 4.078125 -66.359375 L 69.015625 -66.359375 L 69.015625 -52.328125 L 22.28125 -52.328125 L 22.28125 -39.34375 L 60.09375 -39.34375 L 60.09375 -27.015625 L 22.28125 -27.015625 L 22.28125 -14.03125 L 69.015625 -14.03125 L 69.015625 0 L 4.078125 0 Z M 4.078125 -66.359375 "/></g></g></g><g fill="#f1f6f9" fill-opacity="1"><g transform="translate(1270.464295, 108.512031)"><g><path d="M 3.984375 -66.359375 L 52.609375 -66.359375 C 62.023438 -66.359375 69.164062 -63.484375 74.03125 -57.734375 C 78.894531 -51.984375 81.328125 -43.796875 81.328125 -33.171875 C 81.328125 -22.554688 78.753906 -14.375 73.609375 -8.625 C 68.460938 -2.875 61.460938 0 52.609375 0 L 3.984375 0 Z M 22.28125 -52.328125 L 22.28125 -14.03125 L 45.40625 -14.03125 C 51.09375 -14.03125 55.46875 -15.59375 58.53125 -18.71875 C 61.601562 -21.851562 63.140625 -26.671875 63.140625 -33.171875 C 63.140625 -39.742188 61.632812 -44.578125 58.625 -47.671875 C 55.625 -50.773438 51.21875 -52.328125 45.40625 -52.328125 Z M 22.28125 -52.328125 "/></g></g></g><g fill="#fffff0" fill-opacity="1"><g transform="translate(81.000002, 299.865094)"><g><path d="M 0.4375 -30.421875 L 8.875 -30.421875 L 17.34375 -15.171875 L 25.828125 -30.421875 L 34.34375 -30.421875 L 20.90625 -8.6875 L 20.90625 0 L 13.828125 0 L 13.828125 -8.6875 Z M 0.4375 -30.421875 "/></g></g></g><g fill="#fffff0" fill-opacity="1"><g transform="translate(114.64167, 299.865094)"><g><path d="M 19.5625 -31.125 C 23.5625 -31.125 26.878906 -30.476562 29.515625 -29.1875 C 32.148438 -27.894531 34.125 -26.0625 35.4375 -23.6875 C 36.757812 -21.3125 37.421875 -18.488281 37.421875 -15.21875 C 37.421875 -11.9375 36.757812 -9.109375 35.4375 -6.734375 C 34.125 -4.359375 32.148438 -2.523438 29.515625 -1.234375 C 26.878906 0.0546875 23.5625 0.703125 19.5625 0.703125 C 15.59375 0.703125 12.28125 0.0546875 9.625 -1.234375 C 6.976562 -2.523438 4.992188 -4.359375 3.671875 -6.734375 C 2.347656 -9.109375 1.6875 -11.9375 1.6875 -15.21875 C 1.6875 -18.488281 2.347656 -21.3125 3.671875 -23.6875 C 4.992188 -26.0625 6.976562 -27.894531 9.625 -29.1875 C 12.28125 -30.476562 15.59375 -31.125 19.5625 -31.125 Z M 19.5625 -25.609375 C 15.882812 -25.609375 13.164062 -24.679688 11.40625 -22.828125 C 9.65625 -20.972656 8.78125 -18.4375 8.78125 -15.21875 C 8.78125 -12 9.65625 -9.460938 11.40625 -7.609375 C 13.164062 -5.753906 15.882812 -4.828125 19.5625 -4.828125 C 23.238281 -4.828125 25.945312 -5.753906 27.6875 -7.609375 C 29.425781 -9.460938 30.296875 -12 30.296875 -15.21875 C 30.296875 -18.4375 29.425781 -20.972656 27.6875 -22.828125 C 25.945312 -24.679688 23.238281 -25.609375 19.5625 -25.609375 Z M 19.5625 -25.609375 "/></g></g></g><g fill="#fffff0" fill-opacity="1"><g transform="translate(153.673094, 299.865094)"><g><path d="M 2.125 -30.421875 L 9.21875 -30.421875 L 9.21875 -13.125 C 9.21875 -10.488281 9.960938 -8.445312 11.453125 -7 C 12.941406 -5.550781 15.335938 -4.828125 18.640625 -4.828125 C 21.953125 -4.828125 24.332031 -5.550781 25.78125 -7 C 27.226562 -8.445312 27.953125 -10.488281 27.953125 -13.125 L 27.953125 -30.421875 L 35.078125 -30.421875 L 35.078125 -13.125 C 35.078125 -8.832031 33.710938 -5.453125 30.984375 -2.984375 C 28.265625 -0.523438 24.148438 0.703125 18.640625 0.703125 C 13.140625 0.703125 9.007812 -0.523438 6.25 -2.984375 C 3.5 -5.453125 2.125 -8.832031 2.125 -13.125 Z M 2.125 -30.421875 "/></g></g></g><g fill="#fffff0" fill-opacity="1"><g transform="translate(190.792062, 299.865094)"><g><path d="M 9.078125 -24.90625 L 9.078125 -16.25 L 19.34375 -16.25 C 20.851562 -16.25 22.003906 -16.625 22.796875 -17.375 C 23.597656 -18.132812 24 -19.210938 24 -20.609375 C 24 -21.992188 23.59375 -23.054688 22.78125 -23.796875 C 21.96875 -24.535156 20.820312 -24.90625 19.34375 -24.90625 Z M 9.078125 -10.78125 L 9.078125 0 L 1.953125 0 L 1.953125 -30.421875 L 21.5625 -30.421875 C 24.539062 -30.421875 26.878906 -29.675781 28.578125 -28.1875 C 30.273438 -26.695312 31.125 -24.457031 31.125 -21.46875 C 31.125 -17.96875 29.960938 -15.476562 27.640625 -14 C 28.742188 -13.414062 29.597656 -12.585938 30.203125 -11.515625 C 30.816406 -10.441406 31.125 -9.238281 31.125 -7.90625 L 31.125 -1.828125 C 31.125 -0.929688 31.484375 -0.320312 32.203125 0 L 25 0 C 24.675781 -0.113281 24.425781 -0.351562 24.25 -0.71875 C 24.082031 -1.082031 24 -1.453125 24 -1.828125 L 24 -7.5625 C 24 -8.4375 23.675781 -9.191406 23.03125 -9.828125 C 22.394531 -10.460938 21.644531 -10.78125 20.78125 -10.78125 Z M 9.078125 -10.78125 "/></g></g></g><g fill="#fffff0" fill-opacity="1"><g transform="translate(224.259986, 299.865094)"><g/></g></g><g fill="#fffff0" fill-opacity="1"><g transform="translate(236.690924, 299.865094)"><g><path d="M 0.4375 -30.421875 L 29.515625 -30.421875 L 29.515625 -24.90625 L 18.609375 -24.90625 L 18.609375 0 L 11.4375 0 L 11.4375 -24.90625 L 0.4375 -24.90625 Z M 0.4375 -30.421875 "/></g></g></g><g fill="#fffff0" fill-opacity="1"><g transform="translate(266.594735, 299.865094)"><g><path d="M 9.078125 -24.90625 L 9.078125 -16.25 L 19.34375 -16.25 C 20.851562 -16.25 22.003906 -16.625 22.796875 -17.375 C 23.597656 -18.132812 24 -19.210938 24 -20.609375 C 24 -21.992188 23.59375 -23.054688 22.78125 -23.796875 C 21.96875 -24.535156 20.820312 -24.90625 19.34375 -24.90625 Z M 9.078125 -10.78125 L 9.078125 0 L 1.953125 0 L 1.953125 -30.421875 L 21.5625 -30.421875 C 24.539062 -30.421875 26.878906 -29.675781 28.578125 -28.1875 C 30.273438 -26.695312 31.125 -24.457031 31.125 -21.46875 C 31.125 -17.96875 29.960938 -15.476562 27.640625 -14 C 28.742188 -13.414062 29.597656 -12.585938 30.203125 -11.515625 C 30.816406 -10.441406 31.125 -9.238281 31.125 -7.90625 L 31.125 -1.828125 C 31.125 -0.929688 31.484375 -0.320312 32.203125 0 L 25 0 C 24.675781 -0.113281 24.425781 -0.351562 24.25 -0.71875 C 24.082031 -1.082031 24 -1.453125 24 -1.828125 L 24 -7.5625 C 24 -8.4375 23.675781 -9.191406 23.03125 -9.828125 C 22.394531 -10.460938 21.644531 -10.78125 20.78125 -10.78125 Z M 9.078125 -10.78125 "/></g></g></g><g fill="#fffff0" fill-opacity="1"><g transform="translate(300.062659, 299.865094)"><g><path d="M 2.125 -30.421875 L 9.21875 -30.421875 L 9.21875 -13.125 C 9.21875 -10.488281 9.960938 -8.445312 11.453125 -7 C 12.941406 -5.550781 15.335938 -4.828125 18.640625 -4.828125 C 21.953125 -4.828125 24.332031 -5.550781 25.78125 -7 C 27.226562 -8.445312 27.953125 -10.488281 27.953125 -13.125 L 27.953125 -30.421875 L 35.078125 -30.421875 L 35.078125 -13.125 C 35.078125 -8.832031 33.710938 -5.453125 30.984375 -2.984375 C 28.265625 -0.523438 24.148438 0.703125 18.640625 0.703125 C 13.140625 0.703125 9.007812 -0.523438 6.25 -2.984375 C 3.5 -5.453125 2.125 -8.832031 2.125 -13.125 Z M 2.125 -30.421875 "/></g></g></g><g fill="#fffff0" fill-opacity="1"><g transform="translate(337.181614, 299.865094)"><g><path d="M 16.25 -31.125 C 20.894531 -31.125 24.429688 -30.316406 26.859375 -28.703125 C 29.296875 -27.097656 30.515625 -24.789062 30.515625 -21.78125 L 23.421875 -21.78125 C 23.421875 -23.144531 22.703125 -24.21875 21.265625 -25 C 19.835938 -25.78125 17.90625 -26.171875 15.46875 -26.171875 C 13.53125 -26.171875 12.003906 -25.878906 10.890625 -25.296875 C 9.773438 -24.710938 9.21875 -23.828125 9.21875 -22.640625 C 9.21875 -21.023438 10.234375 -19.894531 12.265625 -19.25 L 24.953125 -15.609375 C 27.179688 -14.972656 28.742188 -14.03125 29.640625 -12.78125 C 30.546875 -11.53125 31 -9.960938 31 -8.078125 C 31 -5.296875 29.785156 -3.132812 27.359375 -1.59375 C 24.941406 -0.0625 21.238281 0.703125 16.25 0.703125 C 11.269531 0.703125 7.597656 -0.160156 5.234375 -1.890625 C 2.867188 -3.617188 1.6875 -5.875 1.6875 -8.65625 L 8.78125 -8.65625 C 8.78125 -7.144531 9.492188 -6.035156 10.921875 -5.328125 C 12.359375 -4.617188 14.351562 -4.265625 16.90625 -4.265625 C 19.050781 -4.265625 20.742188 -4.5625 21.984375 -5.15625 C 23.234375 -5.75 23.859375 -6.664062 23.859375 -7.90625 C 23.859375 -8.632812 23.660156 -9.25 23.265625 -9.75 C 22.878906 -10.257812 22.125 -10.691406 21 -11.046875 L 8.734375 -14.515625 C 6.359375 -15.242188 4.660156 -16.25 3.640625 -17.53125 C 2.628906 -18.820312 2.125 -20.394531 2.125 -22.25 C 2.125 -25.007812 3.316406 -27.175781 5.703125 -28.75 C 8.097656 -30.332031 11.613281 -31.125 16.25 -31.125 Z M 16.25 -31.125 "/></g></g></g><g fill="#fffff0" fill-opacity="1"><g transform="translate(368.389239, 299.865094)"><g><path d="M 0.4375 -30.421875 L 29.515625 -30.421875 L 29.515625 -24.90625 L 18.609375 -24.90625 L 18.609375 0 L 11.4375 0 L 11.4375 -24.90625 L 0.4375 -24.90625 Z M 0.4375 -30.421875 "/></g></g></g><g fill="#fffff0" fill-opacity="1"><g transform="translate(398.293038, 299.865094)"><g><path d="M 2.125 -30.421875 L 31 -30.421875 L 31 -24.90625 L 9.265625 -24.90625 L 9.265625 -17.78125 L 26.90625 -17.78125 L 26.90625 -12.65625 L 9.265625 -12.65625 L 9.265625 -5.515625 L 31 -5.515625 L 31 0 L 2.125 0 Z M 2.125 -30.421875 "/></g></g></g><g fill="#fffff0" fill-opacity="1"><g transform="translate(430.457023, 299.865094)"><g><path d="M 2.125 -30.421875 L 23.078125 -30.421875 C 27.453125 -30.421875 30.773438 -29.101562 33.046875 -26.46875 C 35.328125 -23.832031 36.46875 -20.082031 36.46875 -15.21875 C 36.46875 -10.34375 35.269531 -6.585938 32.875 -3.953125 C 30.488281 -1.316406 27.222656 0 23.078125 0 L 2.125 0 Z M 9.21875 -24.953125 L 9.21875 -5.484375 L 20.34375 -5.484375 C 23.207031 -5.484375 25.421875 -6.285156 26.984375 -7.890625 C 28.554688 -9.492188 29.34375 -11.9375 29.34375 -15.21875 C 29.34375 -21.707031 26.34375 -24.953125 20.34375 -24.953125 Z M 9.21875 -24.953125 "/></g></g></g><g fill="#fffff0" fill-opacity="1"><g transform="translate(468.532224, 299.865094)"><g/></g></g><g fill="#fffff0" fill-opacity="1"><g transform="translate(480.963162, 299.865094)"><g><path d="M 0.4375 -30.421875 L 7.5625 -30.421875 L 12.828125 -9.46875 L 18.34375 -30.421875 L 25.609375 -30.421875 L 31.078125 -9.46875 L 36.34375 -30.421875 L 43.421875 -30.421875 L 35.125 0 L 27.953125 0 L 21.953125 -21.03125 L 15.90625 0 L 8.78125 0 Z M 0.4375 -30.421875 "/></g></g></g><g fill="#fffff0" fill-opacity="1"><g transform="translate(524.775721, 299.865094)"><g><path d="M 2.125 -30.421875 L 31 -30.421875 L 31 -24.90625 L 9.265625 -24.90625 L 9.265625 -17.78125 L 26.90625 -17.78125 L 26.90625 -12.65625 L 9.265625 -12.65625 L 9.265625 -5.515625 L 31 -5.515625 L 31 0 L 2.125 0 Z M 2.125 -30.421875 "/></g></g></g><g fill="#fffff0" fill-opacity="1"><g transform="translate(556.939705, 299.865094)"><g><path d="M 2.125 -30.421875 L 9.21875 -30.421875 L 9.21875 -5.515625 L 30.953125 -5.515625 L 30.953125 0 L 2.125 0 Z M 2.125 -30.421875 "/></g></g></g><g fill="#fffff0" fill-opacity="1"><g transform="translate(588.234397, 299.865094)"><g><path d="M 2.125 -30.421875 L 9.21875 -30.421875 L 9.21875 -5.515625 L 30.953125 -5.515625 L 30.953125 0 L 2.125 0 Z M 2.125 -30.421875 "/></g></g></g><g fill="#fffff0" fill-opacity="1"><g transform="translate(619.529088, 299.865094)"><g><path d="M 2.125 -30.421875 L 8.6875 -30.421875 L 27.953125 -9.34375 L 27.953125 -30.421875 L 35.03125 -30.421875 L 35.03125 0 L 28.46875 0 L 9.21875 -21.078125 L 9.21875 0 L 2.125 0 Z M 2.125 -30.421875 "/></g></g></g><g fill="#fffff0" fill-opacity="1"><g transform="translate(656.561114, 299.865094)"><g><path d="M 2.125 -30.421875 L 31 -30.421875 L 31 -24.90625 L 9.265625 -24.90625 L 9.265625 -17.78125 L 26.90625 -17.78125 L 26.90625 -12.65625 L 9.265625 -12.65625 L 9.265625 -5.515625 L 31 -5.515625 L 31 0 L 2.125 0 Z M 2.125 -30.421875 "/></g></g></g><g fill="#fffff0" fill-opacity="1"><g transform="translate(688.725099, 299.865094)"><g><path d="M 16.25 -31.125 C 20.894531 -31.125 24.429688 -30.316406 26.859375 -28.703125 C 29.296875 -27.097656 30.515625 -24.789062 30.515625 -21.78125 L 23.421875 -21.78125 C 23.421875 -23.144531 22.703125 -24.21875 21.265625 -25 C 19.835938 -25.78125 17.90625 -26.171875 15.46875 -26.171875 C 13.53125 -26.171875 12.003906 -25.878906 10.890625 -25.296875 C 9.773438 -24.710938 9.21875 -23.828125 9.21875 -22.640625 C 9.21875 -21.023438 10.234375 -19.894531 12.265625 -19.25 L 24.953125 -15.609375 C 27.179688 -14.972656 28.742188 -14.03125 29.640625 -12.78125 C 30.546875 -11.53125 31 -9.960938 31 -8.078125 C 31 -5.296875 29.785156 -3.132812 27.359375 -1.59375 C 24.941406 -0.0625 21.238281 0.703125 16.25 0.703125 C 11.269531 0.703125 7.597656 -0.160156 5.234375 -1.890625 C 2.867188 -3.617188 1.6875 -5.875 1.6875 -8.65625 L 8.78125 -8.65625 C 8.78125 -7.144531 9.492188 -6.035156 10.921875 -5.328125 C 12.359375 -4.617188 14.351562 -4.265625 16.90625 -4.265625 C 19.050781 -4.265625 20.742188 -4.5625 21.984375 -5.15625 C 23.234375 -5.75 23.859375 -6.664062 23.859375 -7.90625 C 23.859375 -8.632812 23.660156 -9.25 23.265625 -9.75 C 22.878906 -10.257812 22.125 -10.691406 21 -11.046875 L 8.734375 -14.515625 C 6.359375 -15.242188 4.660156 -16.25 3.640625 -17.53125 C 2.628906 -18.820312 2.125 -20.394531 2.125 -22.25 C 2.125 -25.007812 3.316406 -27.175781 5.703125 -28.75 C 8.097656 -30.332031 11.613281 -31.125 16.25 -31.125 Z M 16.25 -31.125 "/></g></g></g><g fill="#fffff0" fill-opacity="1"><g transform="translate(721.236801, 299.865094)"><g><path d="M 16.25 -31.125 C 20.894531 -31.125 24.429688 -30.316406 26.859375 -28.703125 C 29.296875 -27.097656 30.515625 -24.789062 30.515625 -21.78125 L 23.421875 -21.78125 C 23.421875 -23.144531 22.703125 -24.21875 21.265625 -25 C 19.835938 -25.78125 17.90625 -26.171875 15.46875 -26.171875 C 13.53125 -26.171875 12.003906 -25.878906 10.890625 -25.296875 C 9.773438 -24.710938 9.21875 -23.828125 9.21875 -22.640625 C 9.21875 -21.023438 10.234375 -19.894531 12.265625 -19.25 L 24.953125 -15.609375 C 27.179688 -14.972656 28.742188 -14.03125 29.640625 -12.78125 C 30.546875 -11.53125 31 -9.960938 31 -8.078125 C 31 -5.296875 29.785156 -3.132812 27.359375 -1.59375 C 24.941406 -0.0625 21.238281 0.703125 16.25 0.703125 C 11.269531 0.703125 7.597656 -0.160156 5.234375 -1.890625 C 2.867188 -3.617188 1.6875 -5.875 1.6875 -8.65625 L 8.78125 -8.65625 C 8.78125 -7.144531 9.492188 -6.035156 10.921875 -5.328125 C 12.359375 -4.617188 14.351562 -4.265625 16.90625 -4.265625 C 19.050781 -4.265625 20.742188 -4.5625 21.984375 -5.15625 C 23.234375 -5.75 23.859375 -6.664062 23.859375 -7.90625 C 23.859375 -8.632812 23.660156 -9.25 23.265625 -9.75 C 22.878906 -10.257812 22.125 -10.691406 21 -11.046875 L 8.734375 -14.515625 C 6.359375 -15.242188 4.660156 -16.25 3.640625 -17.53125 C 2.628906 -18.820312 2.125 -20.394531 2.125 -22.25 C 2.125 -25.007812 3.316406 -27.175781 5.703125 -28.75 C 8.097656 -30.332031 11.613281 -31.125 16.25 -31.125 Z M 16.25 -31.125 "/></g></g></g><g fill="#fffff0" fill-opacity="1"><g transform="translate(753.748503, 299.865094)"><g/></g></g><g fill="#fffff0" fill-opacity="1"><g transform="translate(766.179441, 299.865094)"><g><path d="M 19.609375 -16.953125 L 37.515625 -16.953125 L 37.515625 0 L 31.734375 0 L 31.03125 -2.953125 C 29.613281 -1.796875 27.894531 -0.894531 25.875 -0.25 C 23.863281 0.382812 21.523438 0.703125 18.859375 0.703125 C 15.035156 0.703125 11.851562 0.0546875 9.3125 -1.234375 C 6.78125 -2.523438 4.875 -4.359375 3.59375 -6.734375 C 2.320312 -9.109375 1.6875 -11.9375 1.6875 -15.21875 C 1.6875 -18.488281 2.351562 -21.3125 3.6875 -23.6875 C 5.019531 -26.0625 7.039062 -27.894531 9.75 -29.1875 C 12.46875 -30.476562 15.851562 -31.125 19.90625 -31.125 C 24.914062 -31.125 28.882812 -30.171875 31.8125 -28.265625 C 34.738281 -26.367188 36.640625 -23.726562 37.515625 -20.34375 L 30.390625 -20.34375 C 29.628906 -22.050781 28.398438 -23.351562 26.703125 -24.25 C 25.015625 -25.15625 22.835938 -25.609375 20.171875 -25.609375 C 16.316406 -25.609375 13.460938 -24.679688 11.609375 -22.828125 C 9.753906 -20.972656 8.828125 -18.4375 8.828125 -15.21875 C 8.828125 -12 9.753906 -9.460938 11.609375 -7.609375 C 13.460938 -5.753906 16.316406 -4.828125 20.171875 -4.828125 C 22.835938 -4.828125 25.015625 -5.28125 26.703125 -6.1875 C 28.398438 -7.101562 29.628906 -8.398438 30.390625 -10.078125 L 30.421875 -10.078125 L 30.421875 -11.90625 L 19.609375 -11.90625 Z M 19.609375 -16.953125 "/></g></g></g><g fill="#fffff0" fill-opacity="1"><g transform="translate(805.3847, 299.865094)"><g><path d="M 2.125 -30.421875 L 9.21875 -30.421875 L 9.21875 -13.125 C 9.21875 -10.488281 9.960938 -8.445312 11.453125 -7 C 12.941406 -5.550781 15.335938 -4.828125 18.640625 -4.828125 C 21.953125 -4.828125 24.332031 -5.550781 25.78125 -7 C 27.226562 -8.445312 27.953125 -10.488281 27.953125 -13.125 L 27.953125 -30.421875 L 35.078125 -30.421875 L 35.078125 -13.125 C 35.078125 -8.832031 33.710938 -5.453125 30.984375 -2.984375 C 28.265625 -0.523438 24.148438 0.703125 18.640625 0.703125 C 13.140625 0.703125 9.007812 -0.523438 6.25 -2.984375 C 3.5 -5.453125 2.125 -8.832031 2.125 -13.125 Z M 2.125 -30.421875 "/></g></g></g><g fill="#fffff0" fill-opacity="1"><g transform="translate(842.503656, 299.865094)"><g><path d="M 2.125 -30.421875 L 9.21875 -30.421875 L 9.21875 0 L 2.125 0 Z M 2.125 -30.421875 "/></g></g></g><g fill="#fffff0" fill-opacity="1"><g transform="translate(853.717583, 299.865094)"><g><path d="M 2.125 -30.421875 L 23.078125 -30.421875 C 27.453125 -30.421875 30.773438 -29.101562 33.046875 -26.46875 C 35.328125 -23.832031 36.46875 -20.082031 36.46875 -15.21875 C 36.46875 -10.34375 35.269531 -6.585938 32.875 -3.953125 C 30.488281 -1.316406 27.222656 0 23.078125 0 L 2.125 0 Z M 9.21875 -24.953125 L 9.21875 -5.484375 L 20.34375 -5.484375 C 23.207031 -5.484375 25.421875 -6.285156 26.984375 -7.890625 C 28.554688 -9.492188 29.34375 -11.9375 29.34375 -15.21875 C 29.34375 -21.707031 26.34375 -24.953125 20.34375 -24.953125 Z M 9.21875 -24.953125 "/></g></g></g><g fill="#fffff0" fill-opacity="1"><g transform="translate(891.792808, 299.865094)"><g><path d="M 2.125 -30.421875 L 31 -30.421875 L 31 -24.90625 L 9.265625 -24.90625 L 9.265625 -17.78125 L 26.90625 -17.78125 L 26.90625 -12.65625 L 9.265625 -12.65625 L 9.265625 -5.515625 L 31 -5.515625 L 31 0 L 2.125 0 Z M 2.125 -30.421875 "/></g></g></g><g fill="#fffff0" fill-opacity="1"><g transform="translate(923.956746, 299.865094)"><g/></g></g><g fill="#fffff0" fill-opacity="1"><g transform="translate(936.387776, 299.865094)"><g><path d="M 2.125 -30.421875 L 31 -30.421875 L 31 -24.90625 L 9.265625 -24.90625 L 9.265625 -17.78125 L 26.90625 -17.78125 L 26.90625 -12.65625 L 9.265625 -12.65625 L 9.265625 0 L 2.125 0 Z M 2.125 -30.421875 "/></g></g></g><g fill="#fffff0" fill-opacity="1"><g transform="translate(966.726062, 299.865094)"><g><path d="M 19.5625 -31.125 C 23.5625 -31.125 26.878906 -30.476562 29.515625 -29.1875 C 32.148438 -27.894531 34.125 -26.0625 35.4375 -23.6875 C 36.757812 -21.3125 37.421875 -18.488281 37.421875 -15.21875 C 37.421875 -11.9375 36.757812 -9.109375 35.4375 -6.734375 C 34.125 -4.359375 32.148438 -2.523438 29.515625 -1.234375 C 26.878906 0.0546875 23.5625 0.703125 19.5625 0.703125 C 15.59375 0.703125 12.28125 0.0546875 9.625 -1.234375 C 6.976562 -2.523438 4.992188 -4.359375 3.671875 -6.734375 C 2.347656 -9.109375 1.6875 -11.9375 1.6875 -15.21875 C 1.6875 -18.488281 2.347656 -21.3125 3.671875 -23.6875 C 4.992188 -26.0625 6.976562 -27.894531 9.625 -29.1875 C 12.28125 -30.476562 15.59375 -31.125 19.5625 -31.125 Z M 19.5625 -25.609375 C 15.882812 -25.609375 13.164062 -24.679688 11.40625 -22.828125 C 9.65625 -20.972656 8.78125 -18.4375 8.78125 -15.21875 C 8.78125 -12 9.65625 -9.460938 11.40625 -7.609375 C 13.164062 -5.753906 15.882812 -4.828125 19.5625 -4.828125 C 23.238281 -4.828125 25.945312 -5.753906 27.6875 -7.609375 C 29.425781 -9.460938 30.296875 -12 30.296875 -15.21875 C 30.296875 -18.4375 29.425781 -20.972656 27.6875 -22.828125 C 25.945312 -24.679688 23.238281 -25.609375 19.5625 -25.609375 Z M 19.5625 -25.609375 "/></g></g></g><g fill="#fffff0" fill-opacity="1"><g transform="translate(1005.757463, 299.865094)"><g><path d="M 9.078125 -24.90625 L 9.078125 -16.25 L 19.34375 -16.25 C 20.851562 -16.25 22.003906 -16.625 22.796875 -17.375 C 23.597656 -18.132812 24 -19.210938 24 -20.609375 C 24 -21.992188 23.59375 -23.054688 22.78125 -23.796875 C 21.96875 -24.535156 20.820312 -24.90625 19.34375 -24.90625 Z M 9.078125 -10.78125 L 9.078125 0 L 1.953125 0 L 1.953125 -30.421875 L 21.5625 -30.421875 C 24.539062 -30.421875 26.878906 -29.675781 28.578125 -28.1875 C 30.273438 -26.695312 31.125 -24.457031 31.125 -21.46875 C 31.125 -17.96875 29.960938 -15.476562 27.640625 -14 C 28.742188 -13.414062 29.597656 -12.585938 30.203125 -11.515625 C 30.816406 -10.441406 31.125 -9.238281 31.125 -7.90625 L 31.125 -1.828125 C 31.125 -0.929688 31.484375 -0.320312 32.203125 0 L 25 0 C 24.675781 -0.113281 24.425781 -0.351562 24.25 -0.71875 C 24.082031 -1.082031 24 -1.453125 24 -1.828125 L 24 -7.5625 C 24 -8.4375 23.675781 -9.191406 23.03125 -9.828125 C 22.394531 -10.460938 21.644531 -10.78125 20.78125 -10.78125 Z M 9.078125 -10.78125 "/></g></g></g><g fill="#fffff0" fill-opacity="1"><g transform="translate(81.000002, 360.615091)"><g><path d="M 2.125 -30.421875 L 9.21875 -30.421875 L 9.21875 0 L 2.125 0 Z M 2.125 -30.421875 "/></g></g></g><g fill="#fffff0" fill-opacity="1"><g transform="translate(92.21393, 360.615091)"><g><path d="M 16.25 -31.125 C 20.894531 -31.125 24.429688 -30.316406 26.859375 -28.703125 C 29.296875 -27.097656 30.515625 -24.789062 30.515625 -21.78125 L 23.421875 -21.78125 C 23.421875 -23.144531 22.703125 -24.21875 21.265625 -25 C 19.835938 -25.78125 17.90625 -26.171875 15.46875 -26.171875 C 13.53125 -26.171875 12.003906 -25.878906 10.890625 -25.296875 C 9.773438 -24.710938 9.21875 -23.828125 9.21875 -22.640625 C 9.21875 -21.023438 10.234375 -19.894531 12.265625 -19.25 L 24.953125 -15.609375 C 27.179688 -14.972656 28.742188 -14.03125 29.640625 -12.78125 C 30.546875 -11.53125 31 -9.960938 31 -8.078125 C 31 -5.296875 29.785156 -3.132812 27.359375 -1.59375 C 24.941406 -0.0625 21.238281 0.703125 16.25 0.703125 C 11.269531 0.703125 7.597656 -0.160156 5.234375 -1.890625 C 2.867188 -3.617188 1.6875 -5.875 1.6875 -8.65625 L 8.78125 -8.65625 C 8.78125 -7.144531 9.492188 -6.035156 10.921875 -5.328125 C 12.359375 -4.617188 14.351562 -4.265625 16.90625 -4.265625 C 19.050781 -4.265625 20.742188 -4.5625 21.984375 -5.15625 C 23.234375 -5.75 23.859375 -6.664062 23.859375 -7.90625 C 23.859375 -8.632812 23.660156 -9.25 23.265625 -9.75 C 22.878906 -10.257812 22.125 -10.691406 21 -11.046875 L 8.734375 -14.515625 C 6.359375 -15.242188 4.660156 -16.25 3.640625 -17.53125 C 2.628906 -18.820312 2.125 -20.394531 2.125 -22.25 C 2.125 -25.007812 3.316406 -27.175781 5.703125 -28.75 C 8.097656 -30.332031 11.613281 -31.125 16.25 -31.125 Z M 16.25 -31.125 "/></g></g></g><g fill="#fffff0" fill-opacity="1"><g transform="translate(124.725632, 360.615091)"><g><path d="M 2.125 -30.421875 L 12.390625 -30.421875 L 20.859375 -10.125 L 29.34375 -30.421875 L 39.5625 -30.421875 L 39.5625 0 L 32.421875 0 L 32.46875 -23.03125 L 22.953125 0 L 18.734375 0 L 9.21875 -22.953125 L 9.21875 0 L 2.125 0 Z M 2.125 -30.421875 "/></g></g></g><g fill="#fffff0" fill-opacity="1"><g transform="translate(166.278017, 360.615091)"><g><path d="M 13.078125 -30.421875 L 23.5625 -30.421875 L 36.203125 0 L 28.5625 0 L 25.78125 -6.609375 L 10.828125 -6.609375 L 8.046875 0 L 0.4375 0 Z M 23.46875 -12.125 L 18.296875 -24.421875 L 13.125 -12.125 Z M 23.46875 -12.125 "/></g></g></g><g fill="#fffff0" fill-opacity="1"><g transform="translate(202.788478, 360.615091)"><g><path d="M 2.125 -30.421875 L 9.21875 -30.421875 L 9.21875 0 L 2.125 0 Z M 2.125 -30.421875 "/></g></g></g><g fill="#fffff0" fill-opacity="1"><g transform="translate(214.002406, 360.615091)"><g><path d="M 2.125 -30.421875 L 9.21875 -30.421875 L 9.21875 -5.515625 L 30.953125 -5.515625 L 30.953125 0 L 2.125 0 Z M 2.125 -30.421875 "/></g></g></g><g fill="#fffff0" fill-opacity="1"><g transform="translate(245.297086, 360.615091)"><g><path d="M 2.125 -30.421875 L 9.21875 -30.421875 L 9.21875 0 L 2.125 0 Z M 2.125 -30.421875 "/></g></g></g><g fill="#fffff0" fill-opacity="1"><g transform="translate(256.511014, 360.615091)"><g><path d="M 13.078125 -30.421875 L 23.5625 -30.421875 L 36.203125 0 L 28.5625 0 L 25.78125 -6.609375 L 10.828125 -6.609375 L 8.046875 0 L 0.4375 0 Z M 23.46875 -12.125 L 18.296875 -24.421875 L 13.125 -12.125 Z M 23.46875 -12.125 "/></g></g></g><g fill="#fffff0" fill-opacity="1"><g transform="translate(293.021475, 360.615091)"><g><path d="M 1.6875 -6.90625 L 8.609375 -6.90625 L 8.609375 0 L 1.6875 0 Z M 1.6875 -6.90625 "/></g></g></g><g fill="#fffff0" fill-opacity="1"><g transform="translate(303.192251, 360.615091)"><g/></g></g><g fill="#fffff0" fill-opacity="1"><g transform="translate(315.623189, 360.615091)"><g><path d="M 2.125 -30.421875 L 23.078125 -30.421875 C 27.453125 -30.421875 30.773438 -29.101562 33.046875 -26.46875 C 35.328125 -23.832031 36.46875 -20.082031 36.46875 -15.21875 C 36.46875 -10.34375 35.269531 -6.585938 32.875 -3.953125 C 30.488281 -1.316406 27.222656 0 23.078125 0 L 2.125 0 Z M 9.21875 -24.953125 L 9.21875 -5.484375 L 20.34375 -5.484375 C 23.207031 -5.484375 25.421875 -6.285156 26.984375 -7.890625 C 28.554688 -9.492188 29.34375 -11.9375 29.34375 -15.21875 C 29.34375 -21.707031 26.34375 -24.953125 20.34375 -24.953125 Z M 9.21875 -24.953125 "/></g></g></g><g fill="#fffff0" fill-opacity="1"><g transform="translate(353.69839, 360.615091)"><g><path d="M 2.125 -30.421875 L 9.21875 -30.421875 L 9.21875 0 L 2.125 0 Z M 2.125 -30.421875 "/></g></g></g><g fill="#fffff0" fill-opacity="1"><g transform="translate(364.912318, 360.615091)"><g><path d="M 16.25 -31.125 C 20.894531 -31.125 24.429688 -30.316406 26.859375 -28.703125 C 29.296875 -27.097656 30.515625 -24.789062 30.515625 -21.78125 L 23.421875 -21.78125 C 23.421875 -23.144531 22.703125 -24.21875 21.265625 -25 C 19.835938 -25.78125 17.90625 -26.171875 15.46875 -26.171875 C 13.53125 -26.171875 12.003906 -25.878906 10.890625 -25.296875 C 9.773438 -24.710938 9.21875 -23.828125 9.21875 -22.640625 C 9.21875 -21.023438 10.234375 -19.894531 12.265625 -19.25 L 24.953125 -15.609375 C 27.179688 -14.972656 28.742188 -14.03125 29.640625 -12.78125 C 30.546875 -11.53125 31 -9.960938 31 -8.078125 C 31 -5.296875 29.785156 -3.132812 27.359375 -1.59375 C 24.941406 -0.0625 21.238281 0.703125 16.25 0.703125 C 11.269531 0.703125 7.597656 -0.160156 5.234375 -1.890625 C 2.867188 -3.617188 1.6875 -5.875 1.6875 -8.65625 L 8.78125 -8.65625 C 8.78125 -7.144531 9.492188 -6.035156 10.921875 -5.328125 C 12.359375 -4.617188 14.351562 -4.265625 16.90625 -4.265625 C 19.050781 -4.265625 20.742188 -4.5625 21.984375 -5.15625 C 23.234375 -5.75 23.859375 -6.664062 23.859375 -7.90625 C 23.859375 -8.632812 23.660156 -9.25 23.265625 -9.75 C 22.878906 -10.257812 22.125 -10.691406 21 -11.046875 L 8.734375 -14.515625 C 6.359375 -15.242188 4.660156 -16.25 3.640625 -17.53125 C 2.628906 -18.820312 2.125 -20.394531 2.125 -22.25 C 2.125 -25.007812 3.316406 -27.175781 5.703125 -28.75 C 8.097656 -30.332031 11.613281 -31.125 16.25 -31.125 Z M 16.25 -31.125 "/></g></g></g><g fill="#fffff0" fill-opacity="1"><g transform="translate(397.42402, 360.615091)"><g><path d="M 19.90625 -31.125 C 24.914062 -31.125 28.867188 -30.171875 31.765625 -28.265625 C 34.671875 -26.367188 36.554688 -23.726562 37.421875 -20.34375 L 30.296875 -20.34375 C 29.515625 -22.019531 28.273438 -23.316406 26.578125 -24.234375 C 24.878906 -25.148438 22.710938 -25.609375 20.078125 -25.609375 C 16.222656 -25.609375 13.375 -24.6875 11.53125 -22.84375 C 9.695312 -21 8.78125 -18.457031 8.78125 -15.21875 C 8.78125 -11.96875 9.695312 -9.421875 11.53125 -7.578125 C 13.375 -5.742188 16.222656 -4.828125 20.078125 -4.828125 C 22.710938 -4.828125 24.878906 -5.28125 26.578125 -6.1875 C 28.273438 -7.101562 29.515625 -8.398438 30.296875 -10.078125 L 37.421875 -10.078125 C 36.554688 -6.691406 34.671875 -4.046875 31.765625 -2.140625 C 28.867188 -0.242188 24.914062 0.703125 19.90625 0.703125 C 15.851562 0.703125 12.46875 0.0546875 9.75 -1.234375 C 7.039062 -2.523438 5.019531 -4.359375 3.6875 -6.734375 C 2.351562 -9.109375 1.6875 -11.9375 1.6875 -15.21875 C 1.6875 -18.488281 2.351562 -21.3125 3.6875 -23.6875 C 5.019531 -26.0625 7.039062 -27.894531 9.75 -29.1875 C 12.46875 -30.476562 15.851562 -31.125 19.90625 -31.125 Z M 19.90625 -31.125 "/></g></g></g><g fill="#fffff0" fill-opacity="1"><g transform="translate(436.455444, 360.615091)"><g><path d="M 19.5625 -31.125 C 23.5625 -31.125 26.878906 -30.476562 29.515625 -29.1875 C 32.148438 -27.894531 34.125 -26.0625 35.4375 -23.6875 C 36.757812 -21.3125 37.421875 -18.488281 37.421875 -15.21875 C 37.421875 -11.9375 36.757812 -9.109375 35.4375 -6.734375 C 34.125 -4.359375 32.148438 -2.523438 29.515625 -1.234375 C 26.878906 0.0546875 23.5625 0.703125 19.5625 0.703125 C 15.59375 0.703125 12.28125 0.0546875 9.625 -1.234375 C 6.976562 -2.523438 4.992188 -4.359375 3.671875 -6.734375 C 2.347656 -9.109375 1.6875 -11.9375 1.6875 -15.21875 C 1.6875 -18.488281 2.347656 -21.3125 3.671875 -23.6875 C 4.992188 -26.0625 6.976562 -27.894531 9.625 -29.1875 C 12.28125 -30.476562 15.59375 -31.125 19.5625 -31.125 Z M 19.5625 -25.609375 C 15.882812 -25.609375 13.164062 -24.679688 11.40625 -22.828125 C 9.65625 -20.972656 8.78125 -18.4375 8.78125 -15.21875 C 8.78125 -12 9.65625 -9.460938 11.40625 -7.609375 C 13.164062 -5.753906 15.882812 -4.828125 19.5625 -4.828125 C 23.238281 -4.828125 25.945312 -5.753906 27.6875 -7.609375 C 29.425781 -9.460938 30.296875 -12 30.296875 -15.21875 C 30.296875 -18.4375 29.425781 -20.972656 27.6875 -22.828125 C 25.945312 -24.679688 23.238281 -25.609375 19.5625 -25.609375 Z M 19.5625 -25.609375 "/></g></g></g><g fill="#fffff0" fill-opacity="1"><g transform="translate(475.052152, 360.615091)"><g><path d="M 0.4375 -30.421875 L 8.046875 -30.421875 L 18.296875 -6 L 28.5625 -30.421875 L 36.203125 -30.421875 L 23.5625 0 L 13.078125 0 Z M 0.4375 -30.421875 "/></g></g></g><g fill="#fffff0" fill-opacity="1"><g transform="translate(511.562602, 360.615091)"><g><path d="M 2.125 -30.421875 L 31 -30.421875 L 31 -24.90625 L 9.265625 -24.90625 L 9.265625 -17.78125 L 26.90625 -17.78125 L 26.90625 -12.65625 L 9.265625 -12.65625 L 9.265625 -5.515625 L 31 -5.515625 L 31 0 L 2.125 0 Z M 2.125 -30.421875 "/></g></g></g><g fill="#fffff0" fill-opacity="1"><g transform="translate(543.726632, 360.615091)"><g><path d="M 9.078125 -24.90625 L 9.078125 -16.25 L 19.34375 -16.25 C 20.851562 -16.25 22.003906 -16.625 22.796875 -17.375 C 23.597656 -18.132812 24 -19.210938 24 -20.609375 C 24 -21.992188 23.59375 -23.054688 22.78125 -23.796875 C 21.96875 -24.535156 20.820312 -24.90625 19.34375 -24.90625 Z M 9.078125 -10.78125 L 9.078125 0 L 1.953125 0 L 1.953125 -30.421875 L 21.5625 -30.421875 C 24.539062 -30.421875 26.878906 -29.675781 28.578125 -28.1875 C 30.273438 -26.695312 31.125 -24.457031 31.125 -21.46875 C 31.125 -17.96875 29.960938 -15.476562 27.640625 -14 C 28.742188 -13.414062 29.597656 -12.585938 30.203125 -11.515625 C 30.816406 -10.441406 31.125 -9.238281 31.125 -7.90625 L 31.125 -1.828125 C 31.125 -0.929688 31.484375 -0.320312 32.203125 0 L 25 0 C 24.675781 -0.113281 24.425781 -0.351562 24.25 -0.71875 C 24.082031 -1.082031 24 -1.453125 24 -1.828125 L 24 -7.5625 C 24 -8.4375 23.675781 -9.191406 23.03125 -9.828125 C 22.394531 -10.460938 21.644531 -10.78125 20.78125 -10.78125 Z M 9.078125 -10.78125 "/></g></g></g><g fill="#fffff0" fill-opacity="1"><g transform="translate(577.194556, 360.615091)"><g/></g></g><g fill="#fffff0" fill-opacity="1"><g transform="translate(589.625495, 360.615091)"><g><path d="M 0.4375 -30.421875 L 29.515625 -30.421875 L 29.515625 -24.90625 L 18.609375 -24.90625 L 18.609375 0 L 11.4375 0 L 11.4375 -24.90625 L 0.4375 -24.90625 Z M 0.4375 -30.421875 "/></g></g></g><g fill="#fffff0" fill-opacity="1"><g transform="translate(619.529271, 360.615091)"><g><path d="M 2.125 -30.421875 L 9.21875 -30.421875 L 9.21875 -17.953125 L 27.953125 -17.953125 L 27.953125 -30.421875 L 35.078125 -30.421875 L 35.078125 0 L 27.953125 0 L 27.953125 -12.46875 L 9.21875 -12.46875 L 9.21875 0 L 2.125 0 Z M 2.125 -30.421875 "/></g></g></g><g fill="#fffff0" fill-opacity="1"><g transform="translate(656.561343, 360.615091)"><g><path d="M 2.125 -30.421875 L 31 -30.421875 L 31 -24.90625 L 9.265625 -24.90625 L 9.265625 -17.78125 L 26.90625 -17.78125 L 26.90625 -12.65625 L 9.265625 -12.65625 L 9.265625 -5.515625 L 31 -5.515625 L 31 0 L 2.125 0 Z M 2.125 -30.421875 "/></g></g></g><g fill="#fffff0" fill-opacity="1"><g transform="translate(688.725282, 360.615091)"><g/></g></g><g fill="#fffff0" fill-opacity="1"><g transform="translate(701.15622, 360.615091)"><g><path d="M 2.125 -30.421875 L 22.953125 -30.421875 C 25.523438 -30.421875 27.550781 -29.757812 29.03125 -28.4375 C 30.507812 -27.125 31.25 -25.09375 31.25 -22.34375 C 31.25 -20.71875 30.96875 -19.363281 30.40625 -18.28125 C 29.84375 -17.195312 29.050781 -16.347656 28.03125 -15.734375 C 29.476562 -15.242188 30.613281 -14.378906 31.4375 -13.140625 C 32.269531 -11.910156 32.6875 -10.296875 32.6875 -8.296875 C 32.6875 -5.515625 31.914062 -3.4375 30.375 -2.0625 C 28.84375 -0.6875 26.773438 0 24.171875 0 L 2.125 0 Z M 9.265625 -12.78125 L 9.265625 -5.515625 L 21.5625 -5.515625 C 22.832031 -5.515625 23.816406 -5.816406 24.515625 -6.421875 C 25.210938 -7.035156 25.5625 -7.953125 25.5625 -9.171875 C 25.5625 -10.390625 25.210938 -11.296875 24.515625 -11.890625 C 23.816406 -12.484375 22.832031 -12.78125 21.5625 -12.78125 Z M 9.265625 -17.609375 L 20.296875 -17.609375 C 21.546875 -17.609375 22.503906 -17.925781 23.171875 -18.5625 C 23.835938 -19.195312 24.171875 -20.140625 24.171875 -21.390625 C 24.171875 -22.578125 23.835938 -23.457031 23.171875 -24.03125 C 22.503906 -24.613281 21.546875 -24.90625 20.296875 -24.90625 L 9.265625 -24.90625 Z M 9.265625 -17.609375 "/></g></g></g><g fill="#fffff0" fill-opacity="1"><g transform="translate(735.406554, 360.615091)"><g><path d="M 2.125 -30.421875 L 31 -30.421875 L 31 -24.90625 L 9.265625 -24.90625 L 9.265625 -17.78125 L 26.90625 -17.78125 L 26.90625 -12.65625 L 9.265625 -12.65625 L 9.265625 -5.515625 L 31 -5.515625 L 31 0 L 2.125 0 Z M 2.125 -30.421875 "/></g></g></g><g fill="#fffff0" fill-opacity="1"><g transform="translate(767.570493, 360.615091)"><g><path d="M 16.25 -31.125 C 20.894531 -31.125 24.429688 -30.316406 26.859375 -28.703125 C 29.296875 -27.097656 30.515625 -24.789062 30.515625 -21.78125 L 23.421875 -21.78125 C 23.421875 -23.144531 22.703125 -24.21875 21.265625 -25 C 19.835938 -25.78125 17.90625 -26.171875 15.46875 -26.171875 C 13.53125 -26.171875 12.003906 -25.878906 10.890625 -25.296875 C 9.773438 -24.710938 9.21875 -23.828125 9.21875 -22.640625 C 9.21875 -21.023438 10.234375 -19.894531 12.265625 -19.25 L 24.953125 -15.609375 C 27.179688 -14.972656 28.742188 -14.03125 29.640625 -12.78125 C 30.546875 -11.53125 31 -9.960938 31 -8.078125 C 31 -5.296875 29.785156 -3.132812 27.359375 -1.59375 C 24.941406 -0.0625 21.238281 0.703125 16.25 0.703125 C 11.269531 0.703125 7.597656 -0.160156 5.234375 -1.890625 C 2.867188 -3.617188 1.6875 -5.875 1.6875 -8.65625 L 8.78125 -8.65625 C 8.78125 -7.144531 9.492188 -6.035156 10.921875 -5.328125 C 12.359375 -4.617188 14.351562 -4.265625 16.90625 -4.265625 C 19.050781 -4.265625 20.742188 -4.5625 21.984375 -5.15625 C 23.234375 -5.75 23.859375 -6.664062 23.859375 -7.90625 C 23.859375 -8.632812 23.660156 -9.25 23.265625 -9.75 C 22.878906 -10.257812 22.125 -10.691406 21 -11.046875 L 8.734375 -14.515625 C 6.359375 -15.242188 4.660156 -16.25 3.640625 -17.53125 C 2.628906 -18.820312 2.125 -20.394531 2.125 -22.25 C 2.125 -25.007812 3.316406 -27.175781 5.703125 -28.75 C 8.097656 -30.332031 11.613281 -31.125 16.25 -31.125 Z M 16.25 -31.125 "/></g></g></g><g fill="#fffff0" fill-opacity="1"><g transform="translate(798.778118, 360.615091)"><g><path d="M 0.4375 -30.421875 L 29.515625 -30.421875 L 29.515625 -24.90625 L 18.609375 -24.90625 L 18.609375 0 L 11.4375 0 L 11.4375 -24.90625 L 0.4375 -24.90625 Z M 0.4375 -30.421875 "/></g></g></g><g fill="#fffff0" fill-opacity="1"><g transform="translate(828.68194, 360.615091)"><g><path d="M 1.6875 -6.90625 L 8.609375 -6.90625 L 8.609375 0.09375 C 8.609375 2.375 7.976562 4.128906 6.71875 5.359375 C 5.457031 6.597656 3.664062 7.21875 1.34375 7.21875 L 1.34375 4.125 C 2.507812 4.125 3.414062 3.757812 4.0625 3.03125 C 4.71875 2.3125 5.046875 1.332031 5.046875 0.09375 L 5.046875 0 L 1.6875 0 Z M 1.6875 -6.90625 "/></g></g></g><g fill="#fffff0" fill-opacity="1"><g transform="translate(838.852716, 360.615091)"><g/></g></g><g fill="#fffff0" fill-opacity="1"><g transform="translate(851.283654, 360.615091)"><g><path d="M 2.125 -30.421875 L 12.390625 -30.421875 L 20.859375 -10.125 L 29.34375 -30.421875 L 39.5625 -30.421875 L 39.5625 0 L 32.421875 0 L 32.46875 -23.03125 L 22.953125 0 L 18.734375 0 L 9.21875 -22.953125 L 9.21875 0 L 2.125 0 Z M 2.125 -30.421875 "/></g></g></g><g fill="#fffff0" fill-opacity="1"><g transform="translate(892.83605, 360.615091)"><g><path d="M 19.5625 -31.125 C 23.5625 -31.125 26.878906 -30.476562 29.515625 -29.1875 C 32.148438 -27.894531 34.125 -26.0625 35.4375 -23.6875 C 36.757812 -21.3125 37.421875 -18.488281 37.421875 -15.21875 C 37.421875 -11.9375 36.757812 -9.109375 35.4375 -6.734375 C 34.125 -4.359375 32.148438 -2.523438 29.515625 -1.234375 C 26.878906 0.0546875 23.5625 0.703125 19.5625 0.703125 C 15.59375 0.703125 12.28125 0.0546875 9.625 -1.234375 C 6.976562 -2.523438 4.992188 -4.359375 3.671875 -6.734375 C 2.347656 -9.109375 1.6875 -11.9375 1.6875 -15.21875 C 1.6875 -18.488281 2.347656 -21.3125 3.671875 -23.6875 C 4.992188 -26.0625 6.976562 -27.894531 9.625 -29.1875 C 12.28125 -30.476562 15.59375 -31.125 19.5625 -31.125 Z M 19.5625 -25.609375 C 15.882812 -25.609375 13.164062 -24.679688 11.40625 -22.828125 C 9.65625 -20.972656 8.78125 -18.4375 8.78125 -15.21875 C 8.78125 -12 9.65625 -9.460938 11.40625 -7.609375 C 13.164062 -5.753906 15.882812 -4.828125 19.5625 -4.828125 C 23.238281 -4.828125 25.945312 -5.753906 27.6875 -7.609375 C 29.425781 -9.460938 30.296875 -12 30.296875 -15.21875 C 30.296875 -18.4375 29.425781 -20.972656 27.6875 -22.828125 C 25.945312 -24.679688 23.238281 -25.609375 19.5625 -25.609375 Z M 19.5625 -25.609375 "/></g></g></g><g fill="#fffff0" fill-opacity="1"><g transform="translate(931.867451, 360.615091)"><g><path d="M 16.25 -31.125 C 20.894531 -31.125 24.429688 -30.316406 26.859375 -28.703125 C 29.296875 -27.097656 30.515625 -24.789062 30.515625 -21.78125 L 23.421875 -21.78125 C 23.421875 -23.144531 22.703125 -24.21875 21.265625 -25 C 19.835938 -25.78125 17.90625 -26.171875 15.46875 -26.171875 C 13.53125 -26.171875 12.003906 -25.878906 10.890625 -25.296875 C 9.773438 -24.710938 9.21875 -23.828125 9.21875 -22.640625 C 9.21875 -21.023438 10.234375 -19.894531 12.265625 -19.25 L 24.953125 -15.609375 C 27.179688 -14.972656 28.742188 -14.03125 29.640625 -12.78125 C 30.546875 -11.53125 31 -9.960938 31 -8.078125 C 31 -5.296875 29.785156 -3.132812 27.359375 -1.59375 C 24.941406 -0.0625 21.238281 0.703125 16.25 0.703125 C 11.269531 0.703125 7.597656 -0.160156 5.234375 -1.890625 C 2.867188 -3.617188 1.6875 -5.875 1.6875 -8.65625 L 8.78125 -8.65625 C 8.78125 -7.144531 9.492188 -6.035156 10.921875 -5.328125 C 12.359375 -4.617188 14.351562 -4.265625 16.90625 -4.265625 C 19.050781 -4.265625 20.742188 -4.5625 21.984375 -5.15625 C 23.234375 -5.75 23.859375 -6.664062 23.859375 -7.90625 C 23.859375 -8.632812 23.660156 -9.25 23.265625 -9.75 C 22.878906 -10.257812 22.125 -10.691406 21 -11.046875 L 8.734375 -14.515625 C 6.359375 -15.242188 4.660156 -16.25 3.640625 -17.53125 C 2.628906 -18.820312 2.125 -20.394531 2.125 -22.25 C 2.125 -25.007812 3.316406 -27.175781 5.703125 -28.75 C 8.097656 -30.332031 11.613281 -31.125 16.25 -31.125 Z M 16.25 -31.125 "/></g></g></g><g fill="#fffff0" fill-opacity="1"><g transform="translate(963.075029, 360.615091)"><g><path d="M 0.4375 -30.421875 L 29.515625 -30.421875 L 29.515625 -24.90625 L 18.609375 -24.90625 L 18.609375 0 L 11.4375 0 L 11.4375 -24.90625 L 0.4375 -24.90625 Z M 0.4375 -30.421875 "/></g></g></g><g fill="#fffff0" fill-opacity="1"><g transform="translate(81.000002, 421.365088)"><g><path d="M 2.125 -30.421875 L 31 -30.421875 L 31 -24.90625 L 9.265625 -24.90625 L 9.265625 -17.78125 L 26.90625 -17.78125 L 26.90625 -12.65625 L 9.265625 -12.65625 L 9.265625 -5.515625 L 31 -5.515625 L 31 0 L 2.125 0 Z M 2.125 -30.421875 "/></g></g></g><g fill="#fffff0" fill-opacity="1"><g transform="translate(113.163987, 421.365088)"><g><path d="M 2.125 -30.421875 L 31 -30.421875 L 31 -24.90625 L 9.265625 -24.90625 L 9.265625 -17.78125 L 26.90625 -17.78125 L 26.90625 -12.65625 L 9.265625 -12.65625 L 9.265625 0 L 2.125 0 Z M 2.125 -30.421875 "/></g></g></g><g fill="#fffff0" fill-opacity="1"><g transform="translate(144.806384, 421.365088)"><g><path d="M 2.125 -30.421875 L 31 -30.421875 L 31 -24.90625 L 9.265625 -24.90625 L 9.265625 -17.78125 L 26.90625 -17.78125 L 26.90625 -12.65625 L 9.265625 -12.65625 L 9.265625 0 L 2.125 0 Z M 2.125 -30.421875 "/></g></g></g><g fill="#fffff0" fill-opacity="1"><g transform="translate(176.448781, 421.365088)"><g><path d="M 2.125 -30.421875 L 31 -30.421875 L 31 -24.90625 L 9.265625 -24.90625 L 9.265625 -17.78125 L 26.90625 -17.78125 L 26.90625 -12.65625 L 9.265625 -12.65625 L 9.265625 -5.515625 L 31 -5.515625 L 31 0 L 2.125 0 Z M 2.125 -30.421875 "/></g></g></g><g fill="#fffff0" fill-opacity="1"><g transform="translate(207.482547, 421.365088)"><g><path d="M 19.90625 -31.125 C 24.914062 -31.125 28.867188 -30.171875 31.765625 -28.265625 C 34.671875 -26.367188 36.554688 -23.726562 37.421875 -20.34375 L 30.296875 -20.34375 C 29.515625 -22.019531 28.273438 -23.316406 26.578125 -24.234375 C 24.878906 -25.148438 22.710938 -25.609375 20.078125 -25.609375 C 16.222656 -25.609375 13.375 -24.6875 11.53125 -22.84375 C 9.695312 -21 8.78125 -18.457031 8.78125 -15.21875 C 8.78125 -11.96875 9.695312 -9.421875 11.53125 -7.578125 C 13.375 -5.742188 16.222656 -4.828125 20.078125 -4.828125 C 22.710938 -4.828125 24.878906 -5.28125 26.578125 -6.1875 C 28.273438 -7.101562 29.515625 -8.398438 30.296875 -10.078125 L 37.421875 -10.078125 C 36.554688 -6.691406 34.671875 -4.046875 31.765625 -2.140625 C 28.867188 -0.242188 24.914062 0.703125 19.90625 0.703125 C 15.851562 0.703125 12.46875 0.0546875 9.75 -1.234375 C 7.039062 -2.523438 5.019531 -4.359375 3.6875 -6.734375 C 2.351562 -9.109375 1.6875 -11.9375 1.6875 -15.21875 C 1.6875 -18.488281 2.351562 -21.3125 3.6875 -23.6875 C 5.019531 -26.0625 7.039062 -27.894531 9.75 -29.1875 C 12.46875 -30.476562 15.851562 -31.125 19.90625 -31.125 Z M 19.90625 -31.125 "/></g></g></g><g fill="#fffff0" fill-opacity="1"><g transform="translate(246.513971, 421.365088)"><g><path d="M 0.4375 -30.421875 L 29.515625 -30.421875 L 29.515625 -24.90625 L 18.609375 -24.90625 L 18.609375 0 L 11.4375 0 L 11.4375 -24.90625 L 0.4375 -24.90625 Z M 0.4375 -30.421875 "/></g></g></g><g fill="#fffff0" fill-opacity="1"><g transform="translate(276.417793, 421.365088)"><g><path d="M 2.125 -30.421875 L 9.21875 -30.421875 L 9.21875 0 L 2.125 0 Z M 2.125 -30.421875 "/></g></g></g><g fill="#fffff0" fill-opacity="1"><g transform="translate(287.631721, 421.365088)"><g><path d="M 0.4375 -30.421875 L 8.046875 -30.421875 L 18.296875 -6 L 28.5625 -30.421875 L 36.203125 -30.421875 L 23.5625 0 L 13.078125 0 Z M 0.4375 -30.421875 "/></g></g></g><g fill="#fffff0" fill-opacity="1"><g transform="translate(324.142171, 421.365088)"><g><path d="M 2.125 -30.421875 L 31 -30.421875 L 31 -24.90625 L 9.265625 -24.90625 L 9.265625 -17.78125 L 26.90625 -17.78125 L 26.90625 -12.65625 L 9.265625 -12.65625 L 9.265625 -5.515625 L 31 -5.515625 L 31 0 L 2.125 0 Z M 2.125 -30.421875 "/></g></g></g><g fill="#fffff0" fill-opacity="1"><g transform="translate(356.306156, 421.365088)"><g/></g></g><g fill="#fffff0" fill-opacity="1"><g transform="translate(368.737094, 421.365088)"><g><path d="M 2.125 -30.421875 L 22.46875 -30.421875 C 25.632812 -30.421875 28.117188 -29.585938 29.921875 -27.921875 C 31.734375 -26.253906 32.640625 -23.695312 32.640625 -20.25 C 32.640625 -16.863281 31.734375 -14.289062 29.921875 -12.53125 C 28.117188 -10.78125 25.632812 -9.90625 22.46875 -9.90625 L 9.21875 -9.90625 L 9.21875 0 L 2.125 0 Z M 9.21875 -15.390625 L 20.609375 -15.390625 C 22.140625 -15.390625 23.335938 -15.820312 24.203125 -16.6875 C 25.078125 -17.5625 25.515625 -18.75 25.515625 -20.25 C 25.515625 -21.789062 25.078125 -22.953125 24.203125 -23.734375 C 23.335938 -24.515625 22.140625 -24.90625 20.609375 -24.90625 L 9.21875 -24.90625 Z M 9.21875 -15.390625 "/></g></g></g><g fill="#fffff0" fill-opacity="1"><g transform="translate(402.639665, 421.365088)"><g><path d="M 9.078125 -24.90625 L 9.078125 -16.25 L 19.34375 -16.25 C 20.851562 -16.25 22.003906 -16.625 22.796875 -17.375 C 23.597656 -18.132812 24 -19.210938 24 -20.609375 C 24 -21.992188 23.59375 -23.054688 22.78125 -23.796875 C 21.96875 -24.535156 20.820312 -24.90625 19.34375 -24.90625 Z M 9.078125 -10.78125 L 9.078125 0 L 1.953125 0 L 1.953125 -30.421875 L 21.5625 -30.421875 C 24.539062 -30.421875 26.878906 -29.675781 28.578125 -28.1875 C 30.273438 -26.695312 31.125 -24.457031 31.125 -21.46875 C 31.125 -17.96875 29.960938 -15.476562 27.640625 -14 C 28.742188 -13.414062 29.597656 -12.585938 30.203125 -11.515625 C 30.816406 -10.441406 31.125 -9.238281 31.125 -7.90625 L 31.125 -1.828125 C 31.125 -0.929688 31.484375 -0.320312 32.203125 0 L 25 0 C 24.675781 -0.113281 24.425781 -0.351562 24.25 -0.71875 C 24.082031 -1.082031 24 -1.453125 24 -1.828125 L 24 -7.5625 C 24 -8.4375 23.675781 -9.191406 23.03125 -9.828125 C 22.394531 -10.460938 21.644531 -10.78125 20.78125 -10.78125 Z M 9.078125 -10.78125 "/></g></g></g><g fill="#fffff0" fill-opacity="1"><g transform="translate(436.107589, 421.365088)"><g><path d="M 19.5625 -31.125 C 23.5625 -31.125 26.878906 -30.476562 29.515625 -29.1875 C 32.148438 -27.894531 34.125 -26.0625 35.4375 -23.6875 C 36.757812 -21.3125 37.421875 -18.488281 37.421875 -15.21875 C 37.421875 -11.9375 36.757812 -9.109375 35.4375 -6.734375 C 34.125 -4.359375 32.148438 -2.523438 29.515625 -1.234375 C 26.878906 0.0546875 23.5625 0.703125 19.5625 0.703125 C 15.59375 0.703125 12.28125 0.0546875 9.625 -1.234375 C 6.976562 -2.523438 4.992188 -4.359375 3.671875 -6.734375 C 2.347656 -9.109375 1.6875 -11.9375 1.6875 -15.21875 C 1.6875 -18.488281 2.347656 -21.3125 3.671875 -23.6875 C 4.992188 -26.0625 6.976562 -27.894531 9.625 -29.1875 C 12.28125 -30.476562 15.59375 -31.125 19.5625 -31.125 Z M 19.5625 -25.609375 C 15.882812 -25.609375 13.164062 -24.679688 11.40625 -22.828125 C 9.65625 -20.972656 8.78125 -18.4375 8.78125 -15.21875 C 8.78125 -12 9.65625 -9.460938 11.40625 -7.609375 C 13.164062 -5.753906 15.882812 -4.828125 19.5625 -4.828125 C 23.238281 -4.828125 25.945312 -5.753906 27.6875 -7.609375 C 29.425781 -9.460938 30.296875 -12 30.296875 -15.21875 C 30.296875 -18.4375 29.425781 -20.972656 27.6875 -22.828125 C 25.945312 -24.679688 23.238281 -25.609375 19.5625 -25.609375 Z M 19.5625 -25.609375 "/></g></g></g><g fill="#fffff0" fill-opacity="1"><g transform="translate(475.13899, 421.365088)"><g><path d="M 2.125 -30.421875 L 23.078125 -30.421875 C 27.453125 -30.421875 30.773438 -29.101562 33.046875 -26.46875 C 35.328125 -23.832031 36.46875 -20.082031 36.46875 -15.21875 C 36.46875 -10.34375 35.269531 -6.585938 32.875 -3.953125 C 30.488281 -1.316406 27.222656 0 23.078125 0 L 2.125 0 Z M 9.21875 -24.953125 L 9.21875 -5.484375 L 20.34375 -5.484375 C 23.207031 -5.484375 25.421875 -6.285156 26.984375 -7.890625 C 28.554688 -9.492188 29.34375 -11.9375 29.34375 -15.21875 C 29.34375 -21.707031 26.34375 -24.953125 20.34375 -24.953125 Z M 9.21875 -24.953125 "/></g></g></g><g fill="#fffff0" fill-opacity="1"><g transform="translate(513.214214, 421.365088)"><g><path d="M 2.125 -30.421875 L 9.21875 -30.421875 L 9.21875 -13.125 C 9.21875 -10.488281 9.960938 -8.445312 11.453125 -7 C 12.941406 -5.550781 15.335938 -4.828125 18.640625 -4.828125 C 21.953125 -4.828125 24.332031 -5.550781 25.78125 -7 C 27.226562 -8.445312 27.953125 -10.488281 27.953125 -13.125 L 27.953125 -30.421875 L 35.078125 -30.421875 L 35.078125 -13.125 C 35.078125 -8.832031 33.710938 -5.453125 30.984375 -2.984375 C 28.265625 -0.523438 24.148438 0.703125 18.640625 0.703125 C 13.140625 0.703125 9.007812 -0.523438 6.25 -2.984375 C 3.5 -5.453125 2.125 -8.832031 2.125 -13.125 Z M 2.125 -30.421875 "/></g></g></g><g fill="#fffff0" fill-opacity="1"><g transform="translate(550.333169, 421.365088)"><g><path d="M 19.90625 -31.125 C 24.914062 -31.125 28.867188 -30.171875 31.765625 -28.265625 C 34.671875 -26.367188 36.554688 -23.726562 37.421875 -20.34375 L 30.296875 -20.34375 C 29.515625 -22.019531 28.273438 -23.316406 26.578125 -24.234375 C 24.878906 -25.148438 22.710938 -25.609375 20.078125 -25.609375 C 16.222656 -25.609375 13.375 -24.6875 11.53125 -22.84375 C 9.695312 -21 8.78125 -18.457031 8.78125 -15.21875 C 8.78125 -11.96875 9.695312 -9.421875 11.53125 -7.578125 C 13.375 -5.742188 16.222656 -4.828125 20.078125 -4.828125 C 22.710938 -4.828125 24.878906 -5.28125 26.578125 -6.1875 C 28.273438 -7.101562 29.515625 -8.398438 30.296875 -10.078125 L 37.421875 -10.078125 C 36.554688 -6.691406 34.671875 -4.046875 31.765625 -2.140625 C 28.867188 -0.242188 24.914062 0.703125 19.90625 0.703125 C 15.851562 0.703125 12.46875 0.0546875 9.75 -1.234375 C 7.039062 -2.523438 5.019531 -4.359375 3.6875 -6.734375 C 2.351562 -9.109375 1.6875 -11.9375 1.6875 -15.21875 C 1.6875 -18.488281 2.351562 -21.3125 3.6875 -23.6875 C 5.019531 -26.0625 7.039062 -27.894531 9.75 -29.1875 C 12.46875 -30.476562 15.851562 -31.125 19.90625 -31.125 Z M 19.90625 -31.125 "/></g></g></g><g fill="#fffff0" fill-opacity="1"><g transform="translate(589.364615, 421.365088)"><g><path d="M 0.4375 -30.421875 L 29.515625 -30.421875 L 29.515625 -24.90625 L 18.609375 -24.90625 L 18.609375 0 L 11.4375 0 L 11.4375 -24.90625 L 0.4375 -24.90625 Z M 0.4375 -30.421875 "/></g></g></g><g fill="#fffff0" fill-opacity="1"><g transform="translate(617.964315, 421.365088)"><g><path d="M 16.25 -31.125 C 20.894531 -31.125 24.429688 -30.316406 26.859375 -28.703125 C 29.296875 -27.097656 30.515625 -24.789062 30.515625 -21.78125 L 23.421875 -21.78125 C 23.421875 -23.144531 22.703125 -24.21875 21.265625 -25 C 19.835938 -25.78125 17.90625 -26.171875 15.46875 -26.171875 C 13.53125 -26.171875 12.003906 -25.878906 10.890625 -25.296875 C 9.773438 -24.710938 9.21875 -23.828125 9.21875 -22.640625 C 9.21875 -21.023438 10.234375 -19.894531 12.265625 -19.25 L 24.953125 -15.609375 C 27.179688 -14.972656 28.742188 -14.03125 29.640625 -12.78125 C 30.546875 -11.53125 31 -9.960938 31 -8.078125 C 31 -5.296875 29.785156 -3.132812 27.359375 -1.59375 C 24.941406 -0.0625 21.238281 0.703125 16.25 0.703125 C 11.269531 0.703125 7.597656 -0.160156 5.234375 -1.890625 C 2.867188 -3.617188 1.6875 -5.875 1.6875 -8.65625 L 8.78125 -8.65625 C 8.78125 -7.144531 9.492188 -6.035156 10.921875 -5.328125 C 12.359375 -4.617188 14.351562 -4.265625 16.90625 -4.265625 C 19.050781 -4.265625 20.742188 -4.5625 21.984375 -5.15625 C 23.234375 -5.75 23.859375 -6.664062 23.859375 -7.90625 C 23.859375 -8.632812 23.660156 -9.25 23.265625 -9.75 C 22.878906 -10.257812 22.125 -10.691406 21 -11.046875 L 8.734375 -14.515625 C 6.359375 -15.242188 4.660156 -16.25 3.640625 -17.53125 C 2.628906 -18.820312 2.125 -20.394531 2.125 -22.25 C 2.125 -25.007812 3.316406 -27.175781 5.703125 -28.75 C 8.097656 -30.332031 11.613281 -31.125 16.25 -31.125 Z M 16.25 -31.125 "/></g></g></g><g fill="#fffff0" fill-opacity="1"><g transform="translate(650.476017, 421.365088)"><g><path d="M 1.6875 -6.90625 L 8.609375 -6.90625 L 8.609375 0.09375 C 8.609375 2.375 7.976562 4.128906 6.71875 5.359375 C 5.457031 6.597656 3.664062 7.21875 1.34375 7.21875 L 1.34375 4.125 C 2.507812 4.125 3.414062 3.757812 4.0625 3.03125 C 4.71875 2.3125 5.046875 1.332031 5.046875 0.09375 L 5.046875 0 L 1.6875 0 Z M 1.6875 -6.90625 "/></g></g></g><g fill="#fffff0" fill-opacity="1"><g transform="translate(660.646793, 421.365088)"><g/></g></g><g fill="#fffff0" fill-opacity="1"><g transform="translate(673.077731, 421.365088)"><g><path d="M 2.125 -30.421875 L 9.21875 -30.421875 L 9.21875 -17.953125 L 27.953125 -17.953125 L 27.953125 -30.421875 L 35.078125 -30.421875 L 35.078125 0 L 27.953125 0 L 27.953125 -12.46875 L 9.21875 -12.46875 L 9.21875 0 L 2.125 0 Z M 2.125 -30.421875 "/></g></g></g><g fill="#fffff0" fill-opacity="1"><g transform="translate(710.109758, 421.365088)"><g><path d="M 13.078125 -30.421875 L 23.5625 -30.421875 L 36.203125 0 L 28.5625 0 L 25.78125 -6.609375 L 10.828125 -6.609375 L 8.046875 0 L 0.4375 0 Z M 23.46875 -12.125 L 18.296875 -24.421875 L 13.125 -12.125 Z M 23.46875 -12.125 "/></g></g></g><g fill="#fffff0" fill-opacity="1"><g transform="translate(746.620208, 421.365088)"><g><path d="M 2.125 -30.421875 L 8.6875 -30.421875 L 27.953125 -9.34375 L 27.953125 -30.421875 L 35.03125 -30.421875 L 35.03125 0 L 28.46875 0 L 9.21875 -21.078125 L 9.21875 0 L 2.125 0 Z M 2.125 -30.421875 "/></g></g></g><g fill="#fffff0" fill-opacity="1"><g transform="translate(783.65228, 421.365088)"><g><path d="M 2.125 -30.421875 L 23.078125 -30.421875 C 27.453125 -30.421875 30.773438 -29.101562 33.046875 -26.46875 C 35.328125 -23.832031 36.46875 -20.082031 36.46875 -15.21875 C 36.46875 -10.34375 35.269531 -6.585938 32.875 -3.953125 C 30.488281 -1.316406 27.222656 0 23.078125 0 L 2.125 0 Z M 9.21875 -24.953125 L 9.21875 -5.484375 L 20.34375 -5.484375 C 23.207031 -5.484375 25.421875 -6.285156 26.984375 -7.890625 C 28.554688 -9.492188 29.34375 -11.9375 29.34375 -15.21875 C 29.34375 -21.707031 26.34375 -24.953125 20.34375 -24.953125 Z M 9.21875 -24.953125 "/></g></g></g><g fill="#fffff0" fill-opacity="1"><g transform="translate(821.727459, 421.365088)"><g><path d="M 1.6875 -15.515625 L 17.734375 -15.515625 L 17.734375 -10.5625 L 1.6875 -10.5625 Z M 1.6875 -15.515625 "/></g></g></g><g fill="#fffff0" fill-opacity="1"><g transform="translate(841.025859, 421.365088)"><g><path d="M 2.125 -30.421875 L 22.46875 -30.421875 C 25.632812 -30.421875 28.117188 -29.585938 29.921875 -27.921875 C 31.734375 -26.253906 32.640625 -23.695312 32.640625 -20.25 C 32.640625 -16.863281 31.734375 -14.289062 29.921875 -12.53125 C 28.117188 -10.78125 25.632812 -9.90625 22.46875 -9.90625 L 9.21875 -9.90625 L 9.21875 0 L 2.125 0 Z M 9.21875 -15.390625 L 20.609375 -15.390625 C 22.140625 -15.390625 23.335938 -15.820312 24.203125 -16.6875 C 25.078125 -17.5625 25.515625 -18.75 25.515625 -20.25 C 25.515625 -21.789062 25.078125 -22.953125 24.203125 -23.734375 C 23.335938 -24.515625 22.140625 -24.90625 20.609375 -24.90625 L 9.21875 -24.90625 Z M 9.21875 -15.390625 "/></g></g></g><g fill="#fffff0" fill-opacity="1"><g transform="translate(874.928429, 421.365088)"><g><path d="M 2.125 -30.421875 L 9.21875 -30.421875 L 9.21875 0 L 2.125 0 Z M 2.125 -30.421875 "/></g></g></g><g fill="#fffff0" fill-opacity="1"><g transform="translate(886.142357, 421.365088)"><g><path d="M 19.90625 -31.125 C 24.914062 -31.125 28.867188 -30.171875 31.765625 -28.265625 C 34.671875 -26.367188 36.554688 -23.726562 37.421875 -20.34375 L 30.296875 -20.34375 C 29.515625 -22.019531 28.273438 -23.316406 26.578125 -24.234375 C 24.878906 -25.148438 22.710938 -25.609375 20.078125 -25.609375 C 16.222656 -25.609375 13.375 -24.6875 11.53125 -22.84375 C 9.695312 -21 8.78125 -18.457031 8.78125 -15.21875 C 8.78125 -11.96875 9.695312 -9.421875 11.53125 -7.578125 C 13.375 -5.742188 16.222656 -4.828125 20.078125 -4.828125 C 22.710938 -4.828125 24.878906 -5.28125 26.578125 -6.1875 C 28.273438 -7.101562 29.515625 -8.398438 30.296875 -10.078125 L 37.421875 -10.078125 C 36.554688 -6.691406 34.671875 -4.046875 31.765625 -2.140625 C 28.867188 -0.242188 24.914062 0.703125 19.90625 0.703125 C 15.851562 0.703125 12.46875 0.0546875 9.75 -1.234375 C 7.039062 -2.523438 5.019531 -4.359375 3.6875 -6.734375 C 2.351562 -9.109375 1.6875 -11.9375 1.6875 -15.21875 C 1.6875 -18.488281 2.351562 -21.3125 3.6875 -23.6875 C 5.019531 -26.0625 7.039062 -27.894531 9.75 -29.1875 C 12.46875 -30.476562 15.851562 -31.125 19.90625 -31.125 Z M 19.90625 -31.125 "/></g></g></g><g fill="#fffff0" fill-opacity="1"><g transform="translate(925.173758, 421.365088)"><g><path d="M 1.953125 -30.421875 L 9.078125 -30.421875 L 9.078125 -17.953125 L 20.125 -17.953125 L 28.078125 -30.421875 L 36.34375 -30.421875 L 26.609375 -15.21875 L 36.34375 0 L 28.078125 0 L 20.125 -12.46875 L 9.078125 -12.46875 L 9.078125 0 L 1.953125 0 Z M 1.953125 -30.421875 "/></g></g></g><g fill="#fffff0" fill-opacity="1"><g transform="translate(961.858113, 421.365088)"><g><path d="M 2.125 -30.421875 L 31 -30.421875 L 31 -24.90625 L 9.265625 -24.90625 L 9.265625 -17.78125 L 26.90625 -17.78125 L 26.90625 -12.65625 L 9.265625 -12.65625 L 9.265625 -5.515625 L 31 -5.515625 L 31 0 L 2.125 0 Z M 2.125 -30.421875 "/></g></g></g><g fill="#fffff0" fill-opacity="1"><g transform="translate(994.022052, 421.365088)"><g><path d="M 2.125 -30.421875 L 23.078125 -30.421875 C 27.453125 -30.421875 30.773438 -29.101562 33.046875 -26.46875 C 35.328125 -23.832031 36.46875 -20.082031 36.46875 -15.21875 C 36.46875 -10.34375 35.269531 -6.585938 32.875 -3.953125 C 30.488281 -1.316406 27.222656 0 23.078125 0 L 2.125 0 Z M 9.21875 -24.953125 L 9.21875 -5.484375 L 20.34375 -5.484375 C 23.207031 -5.484375 25.421875 -6.285156 26.984375 -7.890625 C 28.554688 -9.492188 29.34375 -11.9375 29.34375 -15.21875 C 29.34375 -21.707031 26.34375 -24.953125 20.34375 -24.953125 Z M 9.21875 -24.953125 "/></g></g></g><g fill="#fffff0" fill-opacity="1"><g transform="translate(81.000002, 482.115085)"><g><path d="M 2.125 -30.421875 L 31 -30.421875 L 31 -24.90625 L 9.265625 -24.90625 L 9.265625 -17.78125 L 26.90625 -17.78125 L 26.90625 -12.65625 L 9.265625 -12.65625 L 9.265625 0 L 2.125 0 Z M 2.125 -30.421875 "/></g></g></g><g fill="#fffff0" fill-opacity="1"><g transform="translate(111.338299, 482.115085)"><g><path d="M 19.5625 -31.125 C 23.5625 -31.125 26.878906 -30.476562 29.515625 -29.1875 C 32.148438 -27.894531 34.125 -26.0625 35.4375 -23.6875 C 36.757812 -21.3125 37.421875 -18.488281 37.421875 -15.21875 C 37.421875 -11.9375 36.757812 -9.109375 35.4375 -6.734375 C 34.125 -4.359375 32.148438 -2.523438 29.515625 -1.234375 C 26.878906 0.0546875 23.5625 0.703125 19.5625 0.703125 C 15.59375 0.703125 12.28125 0.0546875 9.625 -1.234375 C 6.976562 -2.523438 4.992188 -4.359375 3.671875 -6.734375 C 2.347656 -9.109375 1.6875 -11.9375 1.6875 -15.21875 C 1.6875 -18.488281 2.347656 -21.3125 3.671875 -23.6875 C 4.992188 -26.0625 6.976562 -27.894531 9.625 -29.1875 C 12.28125 -30.476562 15.59375 -31.125 19.5625 -31.125 Z M 19.5625 -25.609375 C 15.882812 -25.609375 13.164062 -24.679688 11.40625 -22.828125 C 9.65625 -20.972656 8.78125 -18.4375 8.78125 -15.21875 C 8.78125 -12 9.65625 -9.460938 11.40625 -7.609375 C 13.164062 -5.753906 15.882812 -4.828125 19.5625 -4.828125 C 23.238281 -4.828125 25.945312 -5.753906 27.6875 -7.609375 C 29.425781 -9.460938 30.296875 -12 30.296875 -15.21875 C 30.296875 -18.4375 29.425781 -20.972656 27.6875 -22.828125 C 25.945312 -24.679688 23.238281 -25.609375 19.5625 -25.609375 Z M 19.5625 -25.609375 "/></g></g></g><g fill="#fffff0" fill-opacity="1"><g transform="translate(150.369723, 482.115085)"><g><path d="M 9.078125 -24.90625 L 9.078125 -16.25 L 19.34375 -16.25 C 20.851562 -16.25 22.003906 -16.625 22.796875 -17.375 C 23.597656 -18.132812 24 -19.210938 24 -20.609375 C 24 -21.992188 23.59375 -23.054688 22.78125 -23.796875 C 21.96875 -24.535156 20.820312 -24.90625 19.34375 -24.90625 Z M 9.078125 -10.78125 L 9.078125 0 L 1.953125 0 L 1.953125 -30.421875 L 21.5625 -30.421875 C 24.539062 -30.421875 26.878906 -29.675781 28.578125 -28.1875 C 30.273438 -26.695312 31.125 -24.457031 31.125 -21.46875 C 31.125 -17.96875 29.960938 -15.476562 27.640625 -14 C 28.742188 -13.414062 29.597656 -12.585938 30.203125 -11.515625 C 30.816406 -10.441406 31.125 -9.238281 31.125 -7.90625 L 31.125 -1.828125 C 31.125 -0.929688 31.484375 -0.320312 32.203125 0 L 25 0 C 24.675781 -0.113281 24.425781 -0.351562 24.25 -0.71875 C 24.082031 -1.082031 24 -1.453125 24 -1.828125 L 24 -7.5625 C 24 -8.4375 23.675781 -9.191406 23.03125 -9.828125 C 22.394531 -10.460938 21.644531 -10.78125 20.78125 -10.78125 Z M 9.078125 -10.78125 "/></g></g></g><g fill="#fffff0" fill-opacity="1"><g transform="translate(183.837647, 482.115085)"><g/></g></g><g fill="#fffff0" fill-opacity="1"><g transform="translate(196.268585, 482.115085)"><g><path d="M 0.4375 -30.421875 L 8.875 -30.421875 L 17.34375 -15.171875 L 25.828125 -30.421875 L 34.34375 -30.421875 L 20.90625 -8.6875 L 20.90625 0 L 13.828125 0 L 13.828125 -8.6875 Z M 0.4375 -30.421875 "/></g></g></g><g fill="#fffff0" fill-opacity="1"><g transform="translate(229.910254, 482.115085)"><g><path d="M 19.5625 -31.125 C 23.5625 -31.125 26.878906 -30.476562 29.515625 -29.1875 C 32.148438 -27.894531 34.125 -26.0625 35.4375 -23.6875 C 36.757812 -21.3125 37.421875 -18.488281 37.421875 -15.21875 C 37.421875 -11.9375 36.757812 -9.109375 35.4375 -6.734375 C 34.125 -4.359375 32.148438 -2.523438 29.515625 -1.234375 C 26.878906 0.0546875 23.5625 0.703125 19.5625 0.703125 C 15.59375 0.703125 12.28125 0.0546875 9.625 -1.234375 C 6.976562 -2.523438 4.992188 -4.359375 3.671875 -6.734375 C 2.347656 -9.109375 1.6875 -11.9375 1.6875 -15.21875 C 1.6875 -18.488281 2.347656 -21.3125 3.671875 -23.6875 C 4.992188 -26.0625 6.976562 -27.894531 9.625 -29.1875 C 12.28125 -30.476562 15.59375 -31.125 19.5625 -31.125 Z M 19.5625 -25.609375 C 15.882812 -25.609375 13.164062 -24.679688 11.40625 -22.828125 C 9.65625 -20.972656 8.78125 -18.4375 8.78125 -15.21875 C 8.78125 -12 9.65625 -9.460938 11.40625 -7.609375 C 13.164062 -5.753906 15.882812 -4.828125 19.5625 -4.828125 C 23.238281 -4.828125 25.945312 -5.753906 27.6875 -7.609375 C 29.425781 -9.460938 30.296875 -12 30.296875 -15.21875 C 30.296875 -18.4375 29.425781 -20.972656 27.6875 -22.828125 C 25.945312 -24.679688 23.238281 -25.609375 19.5625 -25.609375 Z M 19.5625 -25.609375 "/></g></g></g><g fill="#fffff0" fill-opacity="1"><g transform="translate(268.941677, 482.115085)"><g><path d="M 2.125 -30.421875 L 9.21875 -30.421875 L 9.21875 -13.125 C 9.21875 -10.488281 9.960938 -8.445312 11.453125 -7 C 12.941406 -5.550781 15.335938 -4.828125 18.640625 -4.828125 C 21.953125 -4.828125 24.332031 -5.550781 25.78125 -7 C 27.226562 -8.445312 27.953125 -10.488281 27.953125 -13.125 L 27.953125 -30.421875 L 35.078125 -30.421875 L 35.078125 -13.125 C 35.078125 -8.832031 33.710938 -5.453125 30.984375 -2.984375 C 28.265625 -0.523438 24.148438 0.703125 18.640625 0.703125 C 13.140625 0.703125 9.007812 -0.523438 6.25 -2.984375 C 3.5 -5.453125 2.125 -8.832031 2.125 -13.125 Z M 2.125 -30.421875 "/></g></g></g><g fill="#fffff0" fill-opacity="1"><g transform="translate(306.060645, 482.115085)"><g><path d="M 1.6875 -6.90625 L 8.609375 -6.90625 L 8.609375 0 L 1.6875 0 Z M 1.6875 -6.90625 "/></g></g></g></svg>