<?xml version="1.0" standalone="no"?>
<!DOCTYPE svg PUBLIC "-//W3C//DTD SVG 20010904//EN"
 "http://www.w3.org/TR/2001/REC-SVG-20010904/DTD/svg10.dtd">
<svg version="1.0" xmlns="http://www.w3.org/2000/svg"
 width="1024.000000pt" height="1024.000000pt" viewBox="0 0 1024.000000 1024.000000"
 preserveAspectRatio="xMidYMid meet">

<g transform="translate(0.000000,1024.000000) scale(0.100000,-0.100000)"
fill="#000000" stroke="none">
<path d="M4480 7641 c-75 -65 -159 -145 -188 -178 -168 -195 -252 -430 -239
-668 16 -273 155 -562 377 -785 52 -53 125 -116 162 -140 l67 -45 1 -297 0
-296 -62 62 c-153 152 -370 253 -584 271 -93 8 -273 -8 -373 -33 l-71 -18 0
426 c0 318 -3 429 -12 438 -9 9 -83 12 -270 12 -244 0 -258 -1 -268 -19 -6
-13 -10 -211 -10 -573 l-1 -553 -66 -45 c-36 -24 -154 -130 -262 -235 -210
-205 -271 -255 -384 -315 -208 -111 -446 -119 -647 -22 -111 53 -233 177 -288
292 -49 104 -72 202 -72 314 0 342 196 623 481 691 83 19 238 19 314 0 86 -22
172 -68 244 -131 34 -30 70 -54 80 -54 21 0 74 55 225 230 64 74 116 143 116
152 0 36 -192 165 -343 230 -157 68 -258 90 -449 95 -187 6 -288 -5 -413 -44
-212 -67 -400 -202 -541 -390 -274 -364 -330 -907 -134 -1309 156 -322 455
-557 800 -631 117 -25 362 -25 480 1 218 47 394 132 571 275 76 60 230 215
308 309 l44 52 22 -67 c98 -307 368 -533 695 -584 98 -15 334 -6 420 16 180
47 324 146 450 307 3 4 4 -50 2 -120 -4 -174 -14 -166 215 -170 123 -2 175 -7
178 -15 3 -7 9 -102 14 -212 8 -157 15 -221 35 -297 92 -361 359 -632 731
-744 120 -36 352 -45 488 -20 483 91 840 446 952 949 31 136 30 520 -2 657 -3
16 9 2 34 -35 134 -203 391 -326 681 -325 268 1 461 77 636 252 49 48 90 87
92 86 1 -2 23 -60 49 -131 33 -88 55 -133 72 -147 24 -19 41 -20 283 -20 242
0 258 1 275 19 16 19 16 22 -18 78 -49 82 -110 207 -138 283 l-24 65 -6 660
c-6 736 -3 698 -79 852 -93 188 -281 322 -530 378 -115 26 -425 32 -568 11
-394 -58 -595 -185 -676 -427 -30 -90 -46 -250 -26 -274 10 -12 45 -15 206
-15 l194 0 28 41 c72 108 125 144 259 180 114 31 301 31 398 1 124 -39 207
-122 240 -237 8 -27 17 -91 21 -141 l6 -90 -323 0 c-340 1 -445 -8 -601 -53
-265 -77 -442 -230 -519 -451 -19 -55 -23 -87 -23 -201 l-1 -136 -36 101
c-133 376 -315 626 -584 803 -77 51 -226 124 -292 144 -24 7 -43 15 -43 18 0
9 148 97 200 119 119 51 328 68 440 37 30 -9 72 -18 93 -22 l37 -6 0 280 c0
344 13 318 -159 317 -132 -1 -219 -19 -327 -69 -132 -60 -291 -182 -359 -274
-16 -22 -33 -41 -37 -41 -5 0 -8 73 -8 163 0 113 -4 167 -12 175 -9 9 -78 12
-248 12 -170 0 -239 -3 -248 -12 -9 -9 -12 -85 -12 -280 0 -224 -2 -268 -14
-268 -50 0 -298 99 -383 153 l-43 27 0 174 c0 145 -3 177 -16 190 -13 13 -46
16 -202 16 l-186 0 -56 58 c-61 63 -129 169 -162 254 -13 33 -22 86 -25 143
-11 202 69 347 278 500 49 36 89 72 89 79 0 20 -252 330 -270 333 -8 1 -76
-51 -150 -116z m778 -2179 c75 -39 247 -98 315 -107 l47 -7 0 -613 c0 -544 2
-615 16 -629 23 -24 465 -24 488 0 14 14 16 81 16 591 l0 575 68 -37 c207
-114 364 -278 472 -494 103 -206 168 -518 157 -751 -7 -145 -34 -249 -94 -370
-66 -132 -181 -248 -303 -308 -113 -55 -183 -72 -305 -72 -181 0 -304 49 -426
170 -82 82 -136 172 -163 275 -9 33 -21 134 -26 225 -5 91 -16 197 -24 236
-37 176 -125 345 -257 496 l-59 66 0 397 c0 218 3 395 8 393 4 -2 35 -18 70
-36z m-1182 -382 c87 -22 187 -72 271 -134 75 -55 213 -184 213 -199 0 -22
-126 -133 -187 -165 -75 -40 -172 -62 -272 -62 -244 0 -453 157 -506 382 -24
104 -21 124 23 146 124 63 290 75 458 32z m4602 -47 c-43 -345 -246 -535 -573
-537 -132 -1 -239 35 -297 101 -35 38 -61 116 -61 178 0 110 58 202 163 255
108 54 208 67 546 69 l231 1 -9 -67z"/>
</g>
</svg>
